<svg width="561.333" height="408" viewBox="0 0 561.333 408" xmlns="http://www.w3.org/2000/svg" xmlns:xlink="http://www.w3.org/1999/xlink" id="svg2" overflow="hidden"><defs id="defs6"><clipPath id="clipPath22"><path d="M0 8.64844 4210 8.64844 4210 3060 0 3060Z" id="path20" clip-rule="evenodd"/></clipPath><clipPath id="clipPath94"><path d="M320 490 480 490 480 680 320 680Z" id="path92"/></clipPath><clipPath id="clipPath114"><path d="M0 8.64844 4210 8.64844 4210 3060 0 3060Z" id="path112" clip-rule="evenodd"/></clipPath><clipPath id="clipPath140"><path d="M1540 490 1700 490 1700 680 1540 680Z" id="path138"/></clipPath><clipPath id="clipPath160"><path d="M0 8.64844 4210 8.64844 4210 3060 0 3060Z" id="path158" clip-rule="evenodd"/></clipPath><clipPath id="clipPath204"><path d="M2479.22 498.02 2408.66 498.02 2400.05 516 2396.72 509.609 2390.69 498.02 2342.49 498.02 2342.49 670.738 2479.22 670.738 2479.22 498.02" id="path202"/></clipPath><clipPath id="clipPath214"><path d="M2330 490 2490 490 2490 680 2330 680Z" id="path212"/></clipPath><clipPath id="clipPath232"><path d="M0 8.64844 4210 8.64844 4210 3060 0 3060Z" id="path230" clip-rule="evenodd"/></clipPath><clipPath id="clipPath260"><path d="M1540 1290 1700 1290 1700 1490 1540 1490Z" id="path258"/></clipPath><clipPath id="clipPath280"><path d="M0 8.64844 4210 8.64844 4210 3060 0 3060Z" id="path278" clip-rule="evenodd"/></clipPath><clipPath id="clipPath298"><path d="M320 1290 480 1290 480 1490 320 1490Z" id="path296"/></clipPath><clipPath id="clipPath310"><path d="M0 8.64844 4210 8.64844 4210 3060 0 3060Z" id="path308" clip-rule="evenodd"/></clipPath><clipPath id="clipPath330"><path d="M2330 1760 2490 1760 2490 1960 2330 1960Z" id="path328"/></clipPath><clipPath id="clipPath342"><path d="M0 8.64844 4210 8.64844 4210 3060 0 3060Z" id="path340" clip-rule="evenodd"/></clipPath><clipPath id="clipPath378"><path d="M0 1.44922 4210 1.44922 4210 3060 0 3060Z" id="path376" clip-rule="evenodd"/></clipPath><clipPath id="clipPath414"><path d="M0 1.44922 4210 1.44922 4210 3060 0 3060Z" id="path412" clip-rule="evenodd"/></clipPath><clipPath id="clipPath498"><path d="M0 1.44922 4210 1.44922 4210 3060 0 3060Z" id="path496" clip-rule="evenodd"/></clipPath></defs><g id="g10" transform="matrix(1.33333 0 0 -1.33333 0 408)"><g id="g12" transform="scale(0.1 0.1)"><path d="M0 1.44922 4210 1.44922 4210 3060 0 3060Z" id="path14" fill="#FFFFFF"/><g id="g16"><g id="g18" clip-path="url(#clipPath22)"><path d="M1608.44 2746.95 1608.44 2866.63" id="path24" stroke="#231F20" stroke-width="7.19658" stroke-miterlimit="10" fill="none"/><path d="M1608.44 2904.41 1633.62 2854.04 1608.44 2866.63 1583.25 2854.04 1608.44 2904.41" id="path26" fill="#231F20"/><path d="M1608.44 2904.41 1633.62 2854.04 1608.44 2866.63 1583.25 2854.04Z" id="path28" stroke="#231F20" stroke-width="7.19658" stroke-miterlimit="10" fill="none"/><path d="M971.539 2746.95 2238.14 2746.95C2261.98 2746.95 2282.34 2738.52 2299.2 2721.66 2316.06 2704.79 2324.5 2684.44 2324.5 2660.59L2324.5 2257.58C2324.5 2233.73 2316.06 2213.38 2299.2 2196.52 2282.34 2179.65 2261.98 2171.22 2238.14 2171.22L971.539 2171.22C947.691 2171.22 927.336 2179.65 910.473 2196.52 893.609 2213.38 885.18 2233.73 885.18 2257.58L885.18 2660.59C885.18 2684.44 893.609 2704.79 910.473 2721.66 927.336 2738.52 947.691 2746.95 971.539 2746.95" id="path30" fill="#C1C1C3"/><path d="M1014.72 2750.55 1036.31 2750.55 1036.31 2743.35 1014.72 2743.35ZM1057.9 2750.55 1079.49 2750.55 1079.49 2743.35 1057.9 2743.35ZM1101.08 2750.55 1122.67 2750.55 1122.67 2743.35 1101.08 2743.35ZM1144.26 2750.55 1165.85 2750.55 1165.85 2743.35 1144.26 2743.35ZM1187.44 2750.55 1209.03 2750.55 1209.03 2743.35 1187.44 2743.35ZM1230.62 2750.55 1252.21 2750.55 1252.21 2743.35 1230.62 2743.35ZM1273.79 2750.55 1295.38 2750.55 1295.38 2743.35 1273.79 2743.35ZM1316.97 2750.55 1338.56 2750.55 1338.56 2743.35 1316.97 2743.35ZM1360.15 2750.55 1381.74 2750.55 1381.74 2743.35 1360.15 2743.35ZM1403.33 2750.55 1424.92 2750.55 1424.92 2743.35 1403.33 2743.35ZM1446.51 2750.55 1468.1 2750.55 1468.1 2743.35 1446.51 2743.35ZM1489.69 2750.55 1511.28 2750.55 1511.28 2743.35 1489.69 2743.35ZM1532.87 2750.55 1554.46 2750.55 1554.46 2743.35 1532.87 2743.35ZM1576.05 2750.55 1597.64 2750.55 1597.64 2743.35 1576.05 2743.35ZM1619.23 2750.55 1640.82 2750.55 1640.82 2743.35 1619.23 2743.35ZM1662.41 2750.55 1684 2750.55 1684 2743.35 1662.41 2743.35ZM1705.59 2750.55 1727.18 2750.55 1727.18 2743.35 1705.59 2743.35ZM1748.77 2750.55 1770.36 2750.55 1770.36 2743.35 1748.77 2743.35ZM1791.95 2750.55 1813.54 2750.55 1813.54 2743.35 1791.95 2743.35ZM1835.13 2750.55 1856.72 2750.55 1856.72 2743.35 1835.13 2743.35ZM1878.31 2750.55 1899.9 2750.55 1899.9 2743.35 1878.31 2743.35ZM1921.49 2750.55 1943.08 2750.55 1943.08 2743.35 1921.49 2743.35ZM1964.67 2750.55 1986.26 2750.55 1986.26 2743.35 1964.67 2743.35ZM2007.85 2750.55 2029.44 2750.55 2029.44 2743.35 2007.85 2743.35ZM2051.03 2750.55 2072.62 2750.55 2072.62 2743.35 2051.03 2743.35ZM2094.21 2750.55 2115.79 2750.55 2115.79 2743.35 2094.21 2743.35ZM2137.38 2750.55 2158.97 2750.55 2158.97 2743.35 2137.38 2743.35ZM2180.56 2750.55 2202.15 2750.55 2202.15 2743.35 2180.56 2743.35ZM2223.74 2750.55 2238.14 2750.55C2240.53 2750.55 2242.93 2750.45 2245.31 2750.26L2244.74 2743.09C2242.54 2743.26 2240.34 2743.35 2238.14 2743.35L2223.74 2743.35ZM2267.57 2745.6C2274.73 2743.12 2281.48 2739.78 2287.8 2735.59L2283.83 2729.59C2278.01 2733.45 2271.81 2736.51 2265.21 2738.8ZM2305.09 2720.67C2310.19 2714.99 2314.49 2708.77 2317.99 2702L2311.61 2698.69C2308.38 2704.92 2304.42 2710.64 2299.74 2715.86ZM2325.86 2680.53C2327.35 2673.97 2328.09 2667.32 2328.09 2660.59L2328.09 2658.63 2320.9 2658.63 2320.9 2660.59C2320.9 2666.78 2320.21 2672.9 2318.84 2678.93ZM2328.09 2637.04 2328.09 2615.45 2320.9 2615.45 2320.9 2637.04ZM2328.09 2593.86 2328.09 2572.27 2320.9 2572.27 2320.9 2593.86ZM2328.09 2550.68 2328.09 2529.09 2320.9 2529.09 2320.9 2550.68ZM2328.09 2507.5 2328.09 2485.91 2320.9 2485.91 2320.9 2507.5ZM2328.09 2464.32 2328.09 2442.73 2320.9 2442.73 2320.9 2464.32ZM2328.09 2421.14 2328.09 2399.55 2320.9 2399.55 2320.9 2421.14ZM2328.09 2377.96 2328.09 2356.38 2320.9 2356.38 2320.9 2377.96ZM2328.09 2334.79 2328.09 2313.2 2320.9 2313.2 2320.9 2334.79ZM2328.09 2291.61 2328.09 2270.02 2320.9 2270.02 2320.9 2291.61ZM2327.63 2248.42C2326.84 2240.77 2325.11 2233.34 2322.42 2226.13L2315.68 2228.65C2318.15 2235.28 2319.75 2242.11 2320.47 2249.15ZM2311.98 2206.21C2307.59 2199.9 2302.48 2194.25 2296.65 2189.25L2291.97 2194.72C2297.34 2199.32 2302.04 2204.52 2306.07 2210.32ZM2277.74 2176.81C2270.83 2173.42 2263.6 2170.96 2256.05 2169.43L2254.62 2176.48C2261.56 2177.89 2268.21 2180.15 2274.57 2183.27ZM2234.22 2167.63 2212.63 2167.63 2212.63 2174.82 2234.22 2174.82ZM2191.04 2167.63 2169.45 2167.63 2169.45 2174.82 2191.04 2174.82ZM2147.86 2167.63 2126.27 2167.63 2126.27 2174.82 2147.86 2174.82ZM2104.68 2167.63 2083.09 2167.63 2083.09 2174.82 2104.68 2174.82ZM2061.51 2167.63 2039.92 2167.63 2039.92 2174.82 2061.51 2174.82ZM2018.33 2167.63 1996.74 2167.63 1996.74 2174.82 2018.33 2174.82ZM1975.15 2167.63 1953.56 2167.63 1953.56 2174.82 1975.15 2174.82ZM1931.97 2167.63 1910.38 2167.63 1910.38 2174.82 1931.97 2174.82ZM1888.79 2167.63 1867.2 2167.63 1867.2 2174.82 1888.79 2174.82ZM1845.61 2167.63 1824.02 2167.63 1824.02 2174.82 1845.61 2174.82ZM1802.43 2167.63 1780.84 2167.63 1780.84 2174.82 1802.43 2174.82ZM1759.25 2167.63 1737.66 2167.63 1737.66 2174.82 1759.25 2174.82ZM1716.07 2167.63 1694.48 2167.63 1694.48 2174.82 1716.07 2174.82ZM1672.89 2167.63 1651.3 2167.63 1651.3 2174.82 1672.89 2174.82ZM1629.71 2167.63 1608.12 2167.63 1608.12 2174.82 1629.71 2174.82ZM1586.53 2167.63 1564.94 2167.63 1564.94 2174.82 1586.53 2174.82ZM1543.35 2167.63 1521.76 2167.63 1521.76 2174.82 1543.35 2174.82ZM1500.17 2167.63 1478.58 2167.63 1478.58 2174.82 1500.17 2174.82ZM1456.99 2167.63 1435.4 2167.63 1435.4 2174.82 1456.99 2174.82ZM1413.81 2167.63 1392.22 2167.63 1392.22 2174.82 1413.81 2174.82ZM1370.63 2167.63 1349.04 2167.63 1349.04 2174.82 1370.63 2174.82ZM1327.45 2167.63 1305.86 2167.63 1305.86 2174.82 1327.45 2174.82ZM1284.27 2167.63 1262.68 2167.63 1262.68 2174.82 1284.27 2174.82ZM1241.09 2167.63 1219.51 2167.63 1219.51 2174.82 1241.09 2174.82ZM1197.92 2167.63 1176.33 2167.63 1176.33 2174.82 1197.92 2174.82ZM1154.74 2167.63 1133.15 2167.63 1133.15 2174.82 1154.74 2174.82ZM1111.56 2167.63 1089.97 2167.63 1089.97 2174.82 1111.56 2174.82ZM1068.38 2167.63 1046.79 2167.63 1046.79 2174.82 1068.38 2174.82ZM1025.2 2167.63 1003.61 2167.63 1003.61 2174.82 1025.2 2174.82ZM982.02 2167.63 971.539 2167.63C967.805 2167.63 964.086 2167.86 960.383 2168.32L961.273 2175.46C964.684 2175.03 968.102 2174.82 971.539 2174.82L982.02 2174.82ZM938.105 2174.07C931.109 2176.87 924.566 2180.49 918.48 2184.94L922.727 2190.75C928.324 2186.66 934.344 2183.32 940.777 2180.75ZM901.879 2200.66C897.078 2206.54 893.086 2212.92 889.898 2219.8L896.43 2222.83C899.359 2216.49 903.035 2210.62 907.449 2205.21ZM882.996 2241.69C882.055 2246.95 881.582 2252.24 881.582 2257.58L881.582 2263.45 888.777 2263.45 888.777 2257.58C888.777 2252.67 889.211 2247.8 890.078 2242.96ZM881.582 2285.04 881.582 2306.63 888.777 2306.63 888.777 2285.04ZM881.582 2328.22 881.582 2349.81 888.777 2349.81 888.777 2328.22ZM881.582 2371.4 881.582 2392.99 888.777 2392.99 888.777 2371.4ZM881.582 2414.58 881.582 2436.17 888.777 2436.17 888.777 2414.58ZM881.582 2457.76 881.582 2479.35 888.777 2479.35 888.777 2457.76ZM881.582 2500.94 881.582 2522.53 888.777 2522.53 888.777 2500.94ZM881.582 2544.12 881.582 2565.71 888.777 2565.71 888.777 2544.12ZM881.582 2587.3 881.582 2608.89 888.777 2608.89 888.777 2587.3ZM881.582 2630.48 881.582 2652.07 888.777 2652.07 888.777 2630.48ZM882.551 2673.75C883.68 2681.39 885.762 2688.77 888.789 2695.88L895.41 2693.05C892.621 2686.52 890.711 2679.73 889.668 2672.7ZM900.133 2715.3C904.809 2721.41 910.18 2726.82 916.242 2731.54L920.664 2725.87C915.086 2721.52 910.148 2716.54 905.848 2710.93ZM935.598 2743.05C942.68 2746.14 950.031 2748.28 957.66 2749.47L958.773 2742.36C951.754 2741.27 944.988 2739.3 938.473 2736.46ZM971.539 2750.55 993.129 2750.55 993.129 2743.35 971.539 2743.35 971.539 2750.55" id="path32" fill="#0E0F0E"/><path d="M1491.49 1595.5 2437.84 1595.5C2466.16 1595.5 2490.33 1585.48 2510.36 1565.46 2530.38 1545.43 2540.39 1521.26 2540.39 1492.94L2540.39 1014.37C2540.39 986.051 2530.38 961.879 2510.36 941.859 2490.33 921.832 2466.16 911.82 2437.84 911.82L1491.49 911.82C1463.17 911.82 1439 921.832 1418.98 941.859 1398.95 961.879 1388.94 986.051 1388.94 1014.37L1388.94 1492.94C1388.94 1521.26 1398.95 1545.43 1418.98 1565.46 1439 1585.48 1463.17 1595.5 1491.49 1595.5" id="path34" fill="#C1C1C3"/><path d="M1534.67 1599.09 1556.26 1599.09 1556.26 1591.9 1534.67 1591.9ZM1577.85 1599.09 1599.44 1599.09 1599.44 1591.9 1577.85 1591.9ZM1621.03 1599.09 1642.62 1599.09 1642.62 1591.9 1621.03 1591.9ZM1664.21 1599.09 1685.8 1599.09 1685.8 1591.9 1664.21 1591.9ZM1707.39 1599.09 1728.98 1599.09 1728.98 1591.9 1707.39 1591.9ZM1750.57 1599.09 1772.16 1599.09 1772.16 1591.9 1750.57 1591.9ZM1793.75 1599.09 1815.34 1599.09 1815.34 1591.9 1793.75 1591.9ZM1836.93 1599.09 1858.52 1599.09 1858.52 1591.9 1836.93 1591.9ZM1880.11 1599.09 1901.7 1599.09 1901.7 1591.9 1880.11 1591.9ZM1923.29 1599.09 1944.88 1599.09 1944.88 1591.9 1923.29 1591.9ZM1966.47 1599.09 1988.06 1599.09 1988.06 1591.9 1966.47 1591.9ZM2009.65 1599.09 2031.24 1599.09 2031.24 1591.9 2009.65 1591.9ZM2052.82 1599.09 2074.41 1599.09 2074.41 1591.9 2052.82 1591.9ZM2096 1599.09 2117.59 1599.09 2117.59 1591.9 2096 1591.9ZM2139.18 1599.09 2160.77 1599.09 2160.77 1591.9 2139.18 1591.9ZM2182.36 1599.09 2203.95 1599.09 2203.95 1591.9 2182.36 1591.9ZM2225.54 1599.09 2247.13 1599.09 2247.13 1591.9 2225.54 1591.9ZM2268.72 1599.09 2290.31 1599.09 2290.31 1591.9 2268.72 1591.9ZM2311.9 1599.09 2333.49 1599.09 2333.49 1591.9 2311.9 1591.9ZM2355.08 1599.09 2376.67 1599.09 2376.67 1591.9 2355.08 1591.9ZM2398.26 1599.09 2419.85 1599.09 2419.85 1591.9 2398.26 1591.9ZM2441.38 1599.04C2448.79 1598.79 2456.1 1597.77 2463.3 1596L2461.58 1589.01C2454.86 1590.67 2448.05 1591.61 2441.14 1591.84ZM2484.71 1588.19C2491.47 1584.86 2497.8 1580.86 2503.71 1576.18L2499.25 1570.54C2493.74 1574.9 2487.83 1578.63 2481.53 1581.73ZM2519.94 1560.23C2524.73 1554.39 2528.84 1548.12 2532.29 1541.4L2525.88 1538.11C2522.67 1544.38 2518.83 1550.23 2514.37 1555.67ZM2540.44 1520.18C2542.35 1512.97 2543.49 1505.64 2543.86 1498.19L2536.67 1497.84C2536.33 1504.78 2535.27 1511.62 2533.48 1518.34ZM2543.99 1476.68 2543.99 1455.09 2536.8 1455.09 2536.8 1476.68ZM2543.99 1433.5 2543.99 1411.91 2536.8 1411.91 2536.8 1433.5ZM2543.99 1390.32 2543.99 1368.73 2536.8 1368.73 2536.8 1390.32ZM2543.99 1347.14 2543.99 1325.55 2536.8 1325.55 2536.8 1347.14ZM2543.99 1303.96 2543.99 1282.37 2536.8 1282.37 2536.8 1303.96ZM2543.99 1260.78 2543.99 1239.19 2536.8 1239.19 2536.8 1260.78ZM2543.99 1217.6 2543.99 1196.01 2536.8 1196.01 2536.8 1217.6ZM2543.99 1174.42 2543.99 1152.83 2536.8 1152.83 2536.8 1174.42ZM2543.99 1131.24 2543.99 1109.65 2536.8 1109.65 2536.8 1131.24ZM2543.99 1088.06 2543.99 1066.47 2536.8 1066.47 2536.8 1088.06ZM2543.99 1044.88 2543.99 1023.29 2536.8 1023.29 2536.8 1044.88ZM2543.24 1001.74C2542.33 994.16 2540.63 986.77 2538.12 979.57L2531.33 981.93C2533.66 988.641 2535.25 995.531 2536.09 1002.6ZM2528.57 959.27C2524.63 952.781 2520.04 946.781 2514.81 941.27L2509.59 946.23C2514.47 951.359 2518.74 956.949 2522.42 963ZM2497.49 926.57C2491.32 922.371 2484.77 918.871 2477.86 916.051L2475.15 922.719C2481.59 925.34 2487.69 928.609 2493.45 932.52ZM2455.75 909.738C2449.82 908.73 2443.85 908.219 2437.84 908.219L2434.09 908.219 2434.09 915.422 2437.84 915.422C2443.45 915.422 2449.01 915.891 2454.54 916.84ZM2412.5 908.219 2390.91 908.219 2390.91 915.422 2412.5 915.422ZM2369.33 908.219 2347.74 908.219 2347.74 915.422 2369.33 915.422ZM2326.15 908.219 2304.56 908.219 2304.56 915.422 2326.15 915.422ZM2282.97 908.219 2261.38 908.219 2261.38 915.422 2282.97 915.422ZM2239.79 908.219 2218.2 908.219 2218.2 915.422 2239.79 915.422ZM2196.61 908.219 2175.02 908.219 2175.02 915.422 2196.61 915.422ZM2153.43 908.219 2131.84 908.219 2131.84 915.422 2153.43 915.422ZM2110.25 908.219 2088.66 908.219 2088.66 915.422 2110.25 915.422ZM2067.07 908.219 2045.48 908.219 2045.48 915.422 2067.07 915.422ZM2023.89 908.219 2002.3 908.219 2002.3 915.422 2023.89 915.422ZM1980.71 908.219 1959.12 908.219 1959.12 915.422 1980.71 915.422ZM1937.53 908.219 1915.94 908.219 1915.94 915.422 1937.53 915.422ZM1894.35 908.219 1872.76 908.219 1872.76 915.422 1894.35 915.422ZM1851.17 908.219 1829.58 908.219 1829.58 915.422 1851.17 915.422ZM1807.99 908.219 1786.4 908.219 1786.4 915.422 1807.99 915.422ZM1764.81 908.219 1743.22 908.219 1743.22 915.422 1764.81 915.422ZM1721.63 908.219 1700.04 908.219 1700.04 915.422 1721.63 915.422ZM1678.45 908.219 1656.86 908.219 1656.86 915.422 1678.45 915.422ZM1635.27 908.219 1613.68 908.219 1613.68 915.422 1635.27 915.422ZM1592.09 908.219 1570.5 908.219 1570.5 915.422 1592.09 915.422ZM1548.91 908.219 1527.33 908.219 1527.33 915.422 1548.91 915.422ZM1505.74 908.219 1491.49 908.219C1489.07 908.219 1486.64 908.309 1484.22 908.469L1484.72 915.648C1486.97 915.5 1489.23 915.422 1491.49 915.422L1505.74 915.422ZM1462.17 912.352C1454.87 914.449 1447.87 917.301 1441.19 920.898L1444.6 927.238C1450.83 923.879 1457.35 921.23 1464.15 919.27ZM1422.57 933.641C1416.77 938.59 1411.56 944.109 1406.95 950.18L1412.68 954.539C1416.98 948.871 1421.83 943.73 1427.24 939.121ZM1395.35 969.379C1392.1 976.32 1389.64 983.52 1387.95 991L1394.97 992.582C1396.54 985.609 1398.84 978.898 1401.87 972.43ZM1385.35 1012.83 1385.34 1014.37 1385.34 1034.39 1392.54 1034.39 1392.54 1014.37 1392.55 1012.93ZM1385.34 1055.98 1385.34 1077.57 1392.54 1077.57 1392.54 1055.98ZM1385.34 1099.16 1385.34 1120.75 1392.54 1120.75 1392.54 1099.16ZM1385.34 1142.34 1385.34 1163.93 1392.54 1163.93 1392.54 1142.34ZM1385.34 1185.51 1385.34 1207.1 1392.54 1207.1 1392.54 1185.51ZM1385.34 1228.69 1385.34 1250.28 1392.54 1250.28 1392.54 1228.69ZM1385.34 1271.87 1385.34 1293.46 1392.54 1293.46 1392.54 1271.87ZM1385.34 1315.05 1385.34 1336.64 1392.54 1336.64 1392.54 1315.05ZM1385.34 1358.23 1385.34 1379.82 1392.54 1379.82 1392.54 1358.23ZM1385.34 1401.41 1385.34 1423 1392.54 1423 1392.54 1401.41ZM1385.34 1444.59 1385.34 1466.18 1392.54 1466.18 1392.54 1444.59ZM1385.34 1487.77 1385.34 1492.94C1385.34 1498.46 1385.77 1503.94 1386.62 1509.39L1393.73 1508.28C1392.94 1503.2 1392.54 1498.09 1392.54 1492.94L1392.54 1487.77ZM1392.63 1531.59C1395.34 1538.53 1398.75 1545.12 1402.86 1551.35L1408.87 1547.39C1405.04 1541.59 1401.86 1535.44 1399.33 1528.97ZM1417.31 1568.87C1422.74 1574.18 1428.68 1578.85 1435.12 1582.89L1438.95 1576.79C1432.94 1573.03 1427.4 1568.67 1422.34 1563.72ZM1455.23 1592.71C1462.42 1595.32 1469.82 1597.14 1477.41 1598.16L1478.36 1591.02C1471.29 1590.08 1464.39 1588.38 1457.68 1585.94ZM1491.49 1599.09 1513.08 1599.09 1513.08 1591.9 1491.49 1591.9 1491.49 1599.09" id="path36" fill="#0E0F0E"/><path d="M66.5664 803.871 3135.91 803.871C3152.31 803.871 3166.3 798.082 3177.89 786.48 3189.48 774.891 3195.28 760.891 3195.28 744.5L3195.28 467.43C3195.28 451.039 3189.48 437.039 3177.89 425.449 3166.3 413.859 3152.31 408.059 3135.91 408.059L66.5664 408.059C50.1719 408.059 36.1797 413.859 24.5859 425.449 12.9922 437.039 7.19531 451.039 7.19531 467.43L7.19531 744.5C7.19531 760.891 12.9922 774.891 24.5859 786.48 36.1797 798.082 50.1719 803.871 66.5664 803.871" id="path38" fill="#FFFFFF"/><path d="M66.5703 803.871 3135.91 803.871C3152.31 803.871 3166.3 798.082 3177.89 786.48 3189.49 774.891 3195.28 760.898 3195.28 744.5L3195.28 467.43C3195.28 451.039 3189.49 437.039 3177.89 425.449 3166.3 413.859 3152.31 408.059 3135.91 408.059L66.5703 408.059C50.1719 408.059 36.1797 413.859 24.5859 425.449 12.9922 437.039 7.19531 451.039 7.19531 467.43L7.19531 744.5C7.19531 760.898 12.9922 774.891 24.5859 786.48 36.1797 798.082 50.1719 803.871 66.5703 803.871Z" id="path40" stroke="#4276C4" stroke-width="7.19658" fill="none"/><path d="M165.52 156.18 309.454 156.18 309.454 300.11 165.52 300.11Z" id="path42" fill="#FFFFFF"/><path d="M165.52 156.18 309.454 156.18 309.454 300.11 165.52 300.11Z" id="path44" stroke="#0E0F0E" stroke-width="7.19658" fill="none"/><path d="M385.016 300.109 385.016 470.172" id="path46" stroke="#0E0F0E" stroke-width="7.19658" stroke-miterlimit="10" fill="none"/><path d="M385.016 507.949 410.203 457.57 385.016 470.172 359.828 457.57 385.016 507.949" id="path48" fill="#0E0F0E"/><path d="M385.016 507.949 381.801 506.34 402.156 465.621 385.016 474.191 367.875 465.621 388.234 506.34 385.016 507.949 381.801 506.34 385.016 507.949 381.801 509.559 351.781 449.531 385.016 466.141 418.254 449.531 385.016 515.988 381.801 509.559 385.016 507.949" id="path50" fill="#0E0F0E"/><path d="M309.453 156.18 453.387 156.18 453.387 300.11 309.453 300.11Z" id="path52" fill="#FEECBB"/><path d="M309.453 156.18 453.387 156.18 453.387 300.11 309.453 300.11Z" id="path54" stroke="#0E0F0E" stroke-width="7.19658" fill="none"/><path d="M453.387 156.18 597.317 156.18 597.317 300.11 453.387 300.11Z" id="path56" fill="#FFFFFF"/><path d="M453.387 156.18 597.317 156.18 597.317 300.11 453.387 300.11Z" id="path58" stroke="#0E0F0E" stroke-width="7.19658" fill="none"/><path d="M597.316 156.18 741.25 156.18 741.25 300.11 597.316 300.11Z" id="path60" fill="#FFFFFF"/><path d="M597.316 156.18 741.25 156.18 741.25 300.11 597.316 300.11Z" id="path62" stroke="#0E0F0E" stroke-width="7.19658" fill="none"/><path d="M741.25 156.18 885.18 156.18 885.18 300.11 741.25 300.11Z" id="path64" fill="#FFFFFF"/><path d="M741.25 156.18 885.18 156.18 885.18 300.11 741.25 300.11Z" id="path66" stroke="#0E0F0E" stroke-width="7.19658" fill="none"/><path d="M1101.08 156.18 1245.01 156.18 1245.01 300.11 1101.08 300.11Z" id="path68" fill="#FFFFFF"/><path d="M1101.08 156.18 1245.01 156.18 1245.01 300.11 1101.08 300.11Z" id="path70" stroke="#0E0F0E" stroke-width="7.19658" fill="none"/><path d="M1245.01 156.18 1388.94 156.18 1388.94 300.11 1245.01 300.11Z" id="path72" fill="#FFFFFF"/><path d="M1245.01 156.18 1388.94 156.18 1388.94 300.11 1245.01 300.11Z" id="path74" stroke="#0E0F0E" stroke-width="7.19658" fill="none"/><path d="M1388.94 156.18 1532.87 156.18 1532.87 300.11 1388.94 300.11Z" id="path76" fill="#FFFFFF"/><path d="M1388.94 156.18 1532.87 156.18 1532.87 300.11 1388.94 300.11Z" id="path78" stroke="#0E0F0E" stroke-width="7.19658" fill="none"/><path d="M1532.87 156.18 1676.8 156.18 1676.8 300.11 1532.87 300.11Z" id="path80" fill="#79CC4A"/><path d="M1532.87 156.18 1676.8 156.18 1676.8 300.11 1532.87 300.11Z" id="path82" stroke="#0E0F0E" stroke-width="7.19658" fill="none"/><path d="M1676.8 156.18 1820.74 156.18 1820.74 300.11 1676.8 300.11Z" id="path84" fill="#FFFFFF"/><path d="M1676.8 156.18 1820.74 156.18 1820.74 300.11 1676.8 300.11Z" id="path86" stroke="#0E0F0E" stroke-width="7.19658" fill="none"/></g></g><g id="g88"><g id="g90" clip-path="url(#clipPath94)"><path d="M464.18 498.02 394.008 498.02 385.016 515.988 381.801 509.559 376.027 498.02 327.445 498.02 327.445 670.738 464.18 670.738 464.18 498.02" id="path96" fill="#C9C8C8"/><path d="M385.961 498.02 384.074 498.02 385.016 499.898 385.961 498.02" id="path98" fill="#171411"/><path d="M394.008 498.02 385.961 498.02 385.016 499.898 384.074 498.02 376.027 498.02 381.801 509.559 385.016 515.988 394.008 498.02" id="path100" fill="#171411"/><path d="M471.375 490.82 397.605 490.82 394.008 498.02 464.18 498.02 464.18 670.738 327.445 670.738 327.445 498.02 376.027 498.02 372.43 490.82 320.246 490.82 320.246 674.332 320.246 677.93 471.375 677.93 471.375 490.82" id="path102" fill="#C9C8C8"/><path d="M389.559 490.82 380.477 490.82 384.074 498.02 385.961 498.02 389.559 490.82" id="path104" fill="#171411"/><path d="M397.605 490.82 389.559 490.82 385.961 498.02 394.008 498.02 397.605 490.82M380.477 490.82 372.43 490.82 376.027 498.02 384.074 498.02 380.477 490.82" id="path106" fill="#171411"/></g></g><g id="g108"><g id="g110" clip-path="url(#clipPath114)"><path d="M309.453 516.012 453.387 516.012 453.387 695.922 309.453 695.922Z" id="path116" fill="#FEECBB"/><path d="M309.453 516.012 453.387 516.012 453.387 695.922 309.453 695.922Z" id="path118" stroke="#CBAA46" stroke-width="7.19658" fill="none"/><path d="M1608.44 300.109 1608.44 470.172" id="path120" stroke="#0E0F0E" stroke-width="7.19658" stroke-miterlimit="10" fill="none"/><path d="M1608.44 507.949 1633.62 457.57 1608.44 470.172 1583.25 457.57 1608.44 507.949" id="path122" fill="#0E0F0E"/><path d="M1608.44 507.949 1605.22 506.34 1625.58 465.621 1608.44 474.191 1591.29 465.621 1611.65 506.34 1608.44 507.949 1605.22 506.34 1608.44 507.949 1605.22 509.559 1575.2 449.52 1608.44 466.141 1641.67 449.531 1608.44 515.988 1605.22 509.559 1608.44 507.949" id="path124" fill="#0E0F0E"/><path d="M1612.03 695.922C1612.09 743.18 1626.94 777.781 1656.53 801.039 1686.16 824.309 1731.22 836.27 1791.95 836.262 1853.5 836.27 1900.04 846.449 1931.58 867.449 1963.17 888.41 1979.15 920.539 1979.06 962.199L1971.86 962.199C1971.78 922.289 1957.17 893.25 1927.59 873.43 1897.96 853.641 1852.74 843.441 1791.95 843.449 1730.34 843.441 1683.64 831.422 1652.09 806.699 1620.51 781.988 1604.78 744.621 1604.84 695.922L1612.03 695.922" id="path126" fill="#0E0F0E"/><path d="M1997.05 983.789C1997.05 969.391 1989.85 962.199 1975.46 962.199 1961.07 962.199 1953.87 969.391 1953.87 983.789 1953.87 998.18 1961.07 1005.38 1975.46 1005.38 1989.85 1005.38 1997.05 998.18 1997.05 983.789" id="path128" fill="#0E0F0E"/><path d="M1997.05 983.789C1997.05 969.391 1989.85 962.199 1975.46 962.199 1961.07 962.199 1953.87 969.391 1953.87 983.789 1953.87 998.18 1961.07 1005.38 1975.46 1005.38 1989.85 1005.38 1997.05 998.18 1997.05 983.789Z" id="path130" stroke="#0E0F0E" stroke-width="7.19658" fill="none"/><path d="M1597.64 699.441 1597.14 742.621 1611.54 742.781 1612.03 699.602 1597.64 699.441M1596.65 785.789 1596.15 828.969 1610.54 829.129 1611.04 785.961 1596.65 785.789M1595.66 872.148 1595.16 915.32 1609.55 915.488 1610.05 872.309 1595.66 872.148M1594.66 958.5 1594.17 1001.67 1608.56 1001.84 1609.06 958.66 1594.66 958.5M1593.67 1044.85 1593.17 1088.03 1607.57 1088.19 1608.06 1045.02 1593.67 1044.85M1592.68 1131.2 1592.18 1174.38 1606.57 1174.55 1607.07 1131.37 1592.68 1131.2M1591.69 1217.56 1591.19 1260.73 1605.58 1260.9 1606.08 1217.72 1591.69 1217.56M1590.69 1303.91 1590.45 1325.54 1604.84 1325.71 1605.09 1304.08 1590.69 1303.91" id="path132" fill="#52C5BE"/></g></g><g id="g134"><g id="g136" clip-path="url(#clipPath140)"><path d="M1687.6 498.02 1617.42 498.02 1608.44 515.988 1605.22 509.559 1599.45 498.02 1550.86 498.02 1550.86 670.738 1687.6 670.738 1687.6 498.02" id="path142" fill="#C9C8C8"/><path d="M1609.38 498.02 1607.49 498.02 1608.44 499.898 1609.38 498.02" id="path144" fill="#171411"/><path d="M1617.42 498.02 1609.38 498.02 1608.44 499.898 1607.49 498.02 1599.45 498.02 1605.22 509.559 1608.44 515.988 1617.42 498.02" id="path146" fill="#171411"/><path d="M1694.79 490.82 1621.02 490.82 1617.42 498.02 1687.6 498.02 1687.6 670.738 1550.86 670.738 1550.86 498.02 1599.45 498.02 1595.85 490.82 1543.67 490.82 1543.67 674.332 1543.67 677.93 1694.79 677.93 1694.79 490.82" id="path148" fill="#C9C8C8"/><path d="M1612.98 490.82 1603.9 490.82 1607.49 498.02 1609.38 498.02 1612.98 490.82" id="path150" fill="#171411"/><path d="M1621.02 490.82 1612.98 490.82 1609.38 498.02 1617.42 498.02 1621.02 490.82M1603.9 490.82 1595.85 490.82 1599.45 498.02 1607.49 498.02 1603.9 490.82" id="path152" fill="#171411"/></g></g><g id="g154"><g id="g156" clip-path="url(#clipPath160)"><path d="M1532.87 516.012 1676.8 516.012 1676.8 695.922 1532.87 695.922Z" id="path162" fill="#79CC4A"/><path d="M1532.87 516.012 1676.8 516.012 1676.8 695.922 1532.87 695.922Z" id="path164" stroke="#CBAA46" stroke-width="7.19658" fill="none"/><path d="M2324.5 156.18 2468.43 156.18 2468.43 300.11 2324.5 300.11Z" id="path166" fill="#A0DFE3"/><path d="M2324.5 156.18 2468.43 156.18 2468.43 300.11 2324.5 300.11Z" id="path168" stroke="#0E0F0E" stroke-width="7.19658" fill="none"/><path d="M2396.46 300.109 2399.27 470.172" id="path170" stroke="#0E0F0E" stroke-width="7.19658" stroke-miterlimit="10" fill="none"/><path d="M2399.92 507.949 2424.24 457.141 2399.27 470.172 2373.94 458 2399.92 507.949" id="path172" fill="#0E0F0E"/><path d="M2399.92 507.949 2396.67 506.391 2416.33 465.32 2399.34 474.191 2382.11 465.922 2403.11 506.289 2399.92 507.949 2396.67 506.391 2399.92 507.949 2396.72 509.609 2365.76 450.09 2399.2 466.141 2432.15 448.961 2400.05 516 2396.72 509.609 2399.92 507.949" id="path174" fill="#0E0F0E"/><path d="M2468.43 156.18 2612.36 156.18 2612.36 300.11 2468.43 300.11Z" id="path176" fill="#FFFFFF"/><path d="M2468.43 156.18 2612.36 156.18 2612.36 300.11 2468.43 300.11Z" id="path178" stroke="#0E0F0E" stroke-width="7.19658" fill="none"/><path d="M2612.36 156.18 2756.29 156.18 2756.29 300.11 2612.36 300.11Z" id="path180" fill="#FFFFFF"/><path d="M2612.36 156.18 2756.29 156.18 2756.29 300.11 2612.36 300.11Z" id="path182" stroke="#0E0F0E" stroke-width="7.19658" fill="none"/><path d="M2756.29 156.18 2900.22 156.18 2900.22 300.11 2756.29 300.11Z" id="path184" fill="#FFFFFF"/><path d="M2756.29 156.18 2900.22 156.18 2900.22 300.11 2756.29 300.11Z" id="path186" stroke="#0E0F0E" stroke-width="7.19658" fill="none"/><path d="M2900.22 156.18 3044.15 156.18 3044.15 300.11 2900.22 300.11Z" id="path188" fill="#FFFFFF"/><path d="M2900.22 156.18 3044.15 156.18 3044.15 300.11 2900.22 300.11Z" id="path190" stroke="#0E0F0E" stroke-width="7.19658" fill="none"/><path d="M2403.66 695.922C2403.74 744.75 2385.39 782.27 2349 806.852 2312.66 831.449 2258.92 843.441 2187.76 843.449 2117.33 843.43 2064.8 853.66 2030.33 873.559 1995.92 893.52 1979.17 922.469 1979.06 962.199L1971.86 962.199C1971.75 920.359 1990.39 888.141 2026.74 867.32 2063.04 846.441 2116.66 836.281 2187.76 836.262 2258.14 836.27 2310.54 824.27 2344.97 800.891 2379.34 777.5 2396.38 743.051 2396.46 695.922L2403.66 695.922" id="path192" fill="#0E0F0E"/><path d="M1997.05 983.789C1997.05 969.391 1989.85 962.199 1975.46 962.199 1961.07 962.199 1953.87 969.391 1953.87 983.789 1953.87 998.18 1961.07 1005.38 1975.46 1005.38 1989.85 1005.38 1997.05 998.18 1997.05 983.789" id="path194" fill="#0E0F0E"/><path d="M1997.05 983.789C1997.05 969.391 1989.85 962.199 1975.46 962.199 1961.07 962.199 1953.87 969.391 1953.87 983.789 1953.87 998.18 1961.07 1005.38 1975.46 1005.38 1989.85 1005.38 1997.05 998.18 1997.05 983.789Z" id="path196" stroke="#0E0F0E" stroke-width="7.19658" fill="none"/></g></g><g id="g198"><g id="g200" clip-path="url(#clipPath204)"><path d="M2342.49 498.02 2479.22 498.02 2479.22 670.739 2342.49 670.739Z" id="path206" fill="#C9C8C8"/></g></g><g id="g208"><g id="g210" clip-path="url(#clipPath214)"><path d="M2400.68 498.02 2398.81 498.02 2399.78 499.891 2400.68 498.02" id="path216" fill="#171411"/><path d="M2408.66 498.02 2400.68 498.02 2399.78 499.891 2398.81 498.02 2390.69 498.02 2396.72 509.609 2400.05 516 2408.66 498.02" id="path218" fill="#171411"/><path d="M2486.42 490.82 2412.11 490.82 2408.66 498.02 2479.22 498.02 2479.22 670.738 2342.49 670.738 2342.49 498.02 2390.69 498.02 2386.95 490.82 2335.29 490.82 2335.29 674.332 2335.29 677.93 2486.42 677.93 2486.42 490.82" id="path220" fill="#C9C8C8"/><path d="M2404.13 490.82 2395.06 490.82 2398.81 498.02 2400.68 498.02 2404.13 490.82" id="path222" fill="#171411"/><path d="M2412.11 490.82 2404.13 490.82 2400.68 498.02 2408.66 498.02 2412.11 490.82M2395.06 490.82 2386.95 490.82 2390.69 498.02 2398.81 498.02 2395.06 490.82" id="path224" fill="#171411"/></g></g><g id="g226"><g id="g228" clip-path="url(#clipPath232)"><path d="M2324.5 516.012 2468.43 516.012 2468.43 695.922 2324.5 695.922Z" id="path234" fill="#A0DFE3"/><path d="M2324.5 516.012 2468.43 516.012 2468.43 695.922 2324.5 695.922Z" id="path236" stroke="#CBAA46" stroke-width="7.19658" fill="none"/><path d="M1979.06 1127.72C1979.12 1176.43 1963.06 1213.82 1930.88 1238.52 1898.73 1263.22 1851.15 1275.24 1788.35 1275.25 1726.08 1275.24 1679.41 1277.65 1648.56 1282.4 1633.16 1284.76 1621.69 1287.75 1614.44 1291.11 1610.82 1292.78 1608.28 1294.54 1606.8 1296.14 1605.32 1297.77 1604.86 1299.04 1604.84 1300.44L1597.64 1300.44C1597.62 1297.03 1599.11 1293.81 1601.53 1291.24 1605.78 1286.73 1612.66 1283.47 1622.33 1280.59 1651.29 1272.13 1706.32 1268.08 1788.35 1268.05 1850.29 1268.06 1896.27 1256.09 1926.49 1232.81 1956.68 1209.54 1971.81 1174.96 1971.86 1127.72L1979.06 1127.72" id="path238" fill="#0E0F0E"/><path d="M1622.83 1322.03C1622.83 1307.63 1615.63 1300.44 1601.24 1300.44 1586.85 1300.44 1579.65 1307.63 1579.65 1322.03 1579.65 1336.42 1586.85 1343.62 1601.24 1343.62 1615.63 1343.62 1622.83 1336.42 1622.83 1322.03" id="path240" fill="#0E0F0E"/><path d="M1622.83 1322.03 1619.23 1322.03C1619.22 1315.38 1617.59 1311.08 1614.89 1308.38 1612.18 1305.67 1607.88 1304.05 1601.24 1304.03 1594.6 1304.05 1590.3 1305.67 1587.59 1308.38 1584.88 1311.08 1583.26 1315.38 1583.25 1322.03 1583.26 1328.67 1584.88 1332.97 1587.59 1335.67 1590.3 1338.38 1594.6 1340 1601.24 1340.02 1607.88 1340 1612.18 1338.38 1614.89 1335.67 1617.59 1332.97 1619.22 1328.67 1619.23 1322.03L1622.83 1322.03 1626.43 1322.03C1626.44 1329.78 1624.47 1336.27 1619.98 1340.76 1615.48 1345.25 1608.99 1347.23 1601.24 1347.21 1593.49 1347.23 1586.99 1345.25 1582.5 1340.76 1578.01 1336.27 1576.04 1329.78 1576.05 1322.03 1576.04 1314.28 1578.01 1307.78 1582.5 1303.29 1586.99 1298.8 1593.49 1296.82 1601.24 1296.84 1608.99 1296.82 1615.48 1298.8 1619.98 1303.29 1624.47 1307.78 1626.44 1314.28 1626.43 1322.03L1622.83 1322.03" id="path242" fill="#0E0F0E"/><path d="M1615.63 983.789 2328.09 983.789 2328.09 1127.72 1615.63 1127.72Z" id="path244" fill="#FAFABB"/><path d="M1615.63 983.789 2328.09 983.789 2328.09 1127.72 1615.63 1127.72Z" id="path246" stroke="#4276C4" stroke-width="7.19658" fill="none"/><path d="M1601.24 1501.94C1601.24 1597.89 1500.49 1645.87 1298.98 1645.87 1097.48 1645.87 996.727 1686.65 996.727 1768.21" id="path248" stroke="#0E0F0E" stroke-width="7.19658" stroke-miterlimit="10" fill="none"/><path d="M1018.32 1789.8C1018.32 1775.41 1011.12 1768.21 996.727 1768.21 982.332 1768.21 975.137 1775.41 975.137 1789.8 975.137 1804.2 982.332 1811.39 996.727 1811.39 1011.12 1811.39 1018.32 1804.2 1018.32 1789.8" id="path250" fill="#0E0F0E"/><path d="M1018.32 1789.8C1018.32 1775.41 1011.12 1768.21 996.727 1768.21 982.332 1768.21 975.137 1775.41 975.137 1789.8 975.137 1804.2 982.332 1811.39 996.727 1811.39 1011.12 1811.39 1018.32 1804.2 1018.32 1789.8Z" id="path252" stroke="#0E0F0E" stroke-width="7.19658" fill="none"/></g></g><g id="g254"><g id="g256" clip-path="url(#clipPath260)"><path d="M1684 1304.03 1620.68 1304.03C1624.67 1308.49 1626.44 1314.69 1626.43 1322.03L1626.43 1322.03 1626.43 1322.03C1626.44 1329.78 1624.47 1336.27 1619.98 1340.76 1615.5 1345.24 1609.03 1347.21 1601.31 1347.21 1601.29 1347.21 1601.26 1347.21 1601.24 1347.21 1601.21 1347.21 1601.19 1347.21 1601.17 1347.21 1593.45 1347.21 1586.98 1345.24 1582.5 1340.76 1578.01 1336.27 1576.04 1329.78 1576.05 1322.03 1576.04 1314.69 1577.81 1308.49 1581.8 1304.03L1547.26 1304.03 1547.26 1476.75 1684 1476.75 1684 1304.03" id="path262" fill="#A4A2A2"/><path d="M1601.24 1304.03C1594.6 1304.05 1590.3 1305.67 1587.59 1308.38 1584.88 1311.08 1583.26 1315.38 1583.25 1322.03 1583.26 1328.67 1584.88 1332.97 1587.59 1335.67 1590.3 1338.38 1594.6 1340 1601.24 1340.02 1607.88 1340 1612.18 1338.38 1614.89 1335.67 1617.59 1332.97 1619.22 1328.67 1619.23 1322.03 1619.22 1315.38 1617.59 1311.08 1614.89 1308.38 1612.18 1305.67 1607.88 1304.05 1601.24 1304.03" id="path264" fill="#171411"/><path d="M1620.68 1304.03 1581.8 1304.03C1577.81 1308.49 1576.04 1314.69 1576.05 1322.03 1576.04 1329.78 1578.01 1336.27 1582.5 1340.76 1586.98 1345.24 1593.45 1347.21 1601.17 1347.21 1601.19 1347.21 1601.21 1347.21 1601.24 1347.21 1601.26 1347.21 1601.29 1347.21 1601.31 1347.21 1609.03 1347.21 1615.5 1345.24 1619.98 1340.76 1624.47 1336.27 1626.44 1329.78 1626.43 1322.03L1626.43 1322.03 1626.43 1322.03 1626.43 1322.03C1626.44 1314.69 1624.67 1308.49 1620.68 1304.03M1601.24 1340.02C1594.6 1340 1590.3 1338.38 1587.59 1335.67 1584.88 1332.97 1583.26 1328.67 1583.25 1322.03 1583.26 1315.38 1584.88 1311.08 1587.59 1308.38 1590.3 1305.67 1594.6 1304.05 1601.24 1304.03 1607.88 1304.05 1612.18 1305.67 1614.89 1308.38 1617.59 1311.08 1619.22 1315.38 1619.23 1322.03 1619.22 1328.67 1617.59 1332.97 1614.89 1335.67 1612.18 1338.38 1607.88 1340 1601.24 1340.02M1626.43 1322.03 1626.43 1322.03 1626.43 1322.03" id="path266" fill="#171411"/><path d="M1691.2 1296.84 1606.21 1296.84C1606.14 1296.93 1606.07 1297.02 1606.01 1297.1 1611.66 1297.78 1616.44 1299.75 1619.98 1303.29 1620.22 1303.53 1620.45 1303.78 1620.68 1304.03L1684 1304.03 1684 1476.75 1547.26 1476.75 1547.26 1304.03 1581.8 1304.03C1582.03 1303.78 1582.26 1303.53 1582.5 1303.29 1586.38 1299.41 1591.76 1297.41 1598.15 1296.94 1598.16 1296.91 1598.17 1296.87 1598.18 1296.84L1540.07 1296.84 1540.07 1480.35 1540.07 1483.95 1691.2 1483.95 1691.2 1296.84" id="path268" fill="#A4A2A2"/><path d="M1606.21 1296.84 1601.35 1296.84C1602.96 1296.84 1604.52 1296.93 1606.01 1297.1 1606.07 1297.02 1606.14 1296.93 1606.21 1296.84M1601.13 1296.84 1598.18 1296.84C1598.17 1296.87 1598.16 1296.91 1598.15 1296.94 1599.12 1296.87 1600.11 1296.84 1601.13 1296.84" id="path270" fill="#171411"/><path d="M1601.35 1296.84 1601.24 1296.84 1601.24 1296.84 1601.24 1296.84 1601.13 1296.84C1600.11 1296.84 1599.12 1296.87 1598.15 1296.94 1591.76 1297.41 1586.38 1299.41 1582.5 1303.29 1582.26 1303.53 1582.03 1303.78 1581.8 1304.03L1620.68 1304.03C1620.45 1303.78 1620.22 1303.53 1619.98 1303.29 1616.44 1299.75 1611.66 1297.78 1606.01 1297.1 1604.52 1296.93 1602.96 1296.84 1601.35 1296.84" id="path272" fill="#171411"/></g></g><g id="g274"><g id="g276" clip-path="url(#clipPath280)"><path d="M1529.27 1322.03 1673.21 1322.03 1673.21 1501.94 1529.27 1501.94Z" id="path282" fill="#79CC4A"/><path d="M1529.27 1322.03 1673.21 1322.03 1673.21 1501.94 1529.27 1501.94Z" id="path284" stroke="#CBAA46" stroke-width="7.19658" fill="none"/><path d="M385.016 1501.94C385.016 1597.89 486.969 1645.87 690.871 1645.87 894.773 1645.87 996.727 1686.65 996.727 1768.21" id="path286" stroke="#0E0F0E" stroke-width="7.19658" stroke-miterlimit="10" fill="none"/><path d="M1018.32 1789.8C1018.32 1775.41 1011.12 1768.21 996.727 1768.21 982.332 1768.21 975.137 1775.41 975.137 1789.8 975.137 1804.2 982.332 1811.39 996.727 1811.39 1011.12 1811.39 1018.32 1804.2 1018.32 1789.8" id="path288" fill="#0E0F0E"/><path d="M1018.32 1789.8C1018.32 1775.41 1011.12 1768.21 996.727 1768.21 982.332 1768.21 975.137 1775.41 975.137 1789.8 975.137 1804.2 982.332 1811.39 996.727 1811.39 1011.12 1811.39 1018.32 1804.2 1018.32 1789.8Z" id="path290" stroke="#0E0F0E" stroke-width="7.19658" fill="none"/></g></g><g id="g292"><g id="g294" clip-path="url(#clipPath298)"><path d="M327.445 1304.03 464.179 1304.03 464.179 1476.75 327.445 1476.75Z" id="path300" fill="#C9C8C8"/><path d="M471.375 1296.84 320.246 1296.84 320.246 1483.95 471.375 1483.95 471.375 1296.84M327.445 1476.75 327.445 1304.03 464.18 1304.03 464.18 1476.75 327.445 1476.75" id="path302" fill="#C9C8C8"/></g></g><g id="g304"><g id="g306" clip-path="url(#clipPath310)"><path d="M309.453 1322.03 453.387 1322.03 453.387 1501.94 309.453 1501.94Z" id="path312" fill="#FEECBB"/><path d="M309.453 1322.03 453.387 1322.03 453.387 1501.94 309.453 1501.94Z" id="path314" stroke="#CBAA46" stroke-width="7.19658" fill="none"/><path d="M363.43 735.641 364.219 778.809 378.609 778.539 377.82 735.371M365.008 821.98 365.797 865.148 380.188 864.891 379.398 821.719M366.586 908.32 367.379 951.5 381.77 951.23 380.977 908.059M368.168 994.672 368.957 1037.84 383.348 1037.58 382.559 994.41M369.746 1081.01 370.535 1124.19 384.926 1123.92 384.137 1080.75M371.324 1167.36 372.117 1210.53 386.508 1210.27 385.719 1167.1M372.906 1253.7 373.695 1296.88 388.086 1296.61 387.297 1253.44" id="path316" fill="#52C5BE"/><path d="M2407.26 1969.72C2407.26 2056.08 2274.12 2099.26 2007.85 2099.26 1741.57 2099.26 1608.44 2120.85 1608.44 2164.03 1608.44 2207.21 1603.64 2228.8 1594.04 2228.8" id="path318" stroke="#231F20" stroke-width="7.19658" stroke-miterlimit="10" fill="none"/><path d="M1637.22 2228.8C1637.22 2214.4 1630.03 2207.21 1615.63 2207.21 1601.24 2207.21 1594.04 2214.4 1594.04 2228.8 1594.04 2243.19 1601.24 2250.39 1615.63 2250.39 1630.03 2250.39 1637.22 2243.19 1637.22 2228.8" id="path320" fill="#231F20"/><path d="M1637.22 2228.8C1637.22 2214.4 1630.03 2207.21 1615.63 2207.21 1601.24 2207.21 1594.04 2214.4 1594.04 2228.8 1594.04 2243.19 1601.24 2250.39 1615.63 2250.39 1630.03 2250.39 1637.22 2243.19 1637.22 2228.8Z" id="path322" stroke="#231F20" stroke-width="7.19658" fill="none"/></g></g><g id="g324"><g id="g326" clip-path="url(#clipPath330)"><path d="M2342.49 1771.81 2479.22 1771.81 2479.22 1944.53 2342.49 1944.53Z" id="path332" fill="#C9C8C8"/><path d="M2486.42 1764.62 2335.29 1764.62 2335.29 1951.73 2486.42 1951.73 2486.42 1764.62M2342.49 1944.53 2342.49 1771.81 2479.22 1771.81 2479.22 1944.53 2342.49 1944.53" id="path334" fill="#C9C8C8"/></g></g><g id="g336"><g id="g338" clip-path="url(#clipPath342)"><path d="M2324.5 1789.8 2468.43 1789.8 2468.43 1969.72 2324.5 1969.72Z" id="path344" fill="#A0DFE3"/><path d="M2324.5 1789.8 2468.43 1789.8 2468.43 1969.72 2324.5 1969.72Z" id="path346" stroke="#CBAA46" stroke-width="7.19658" fill="none"/><path d="M2385.67 735.531 2385.81 778.711 2400.21 778.66 2400.06 735.48M2385.96 821.891 2386.11 865.07 2400.5 865.02 2400.35 821.84M2386.25 908.25 2386.4 951.422 2400.79 951.379 2400.65 908.199M2386.55 994.602 2386.69 1037.78 2401.09 1037.73 2400.94 994.559M2386.84 1080.96 2386.99 1124.14 2401.38 1124.09 2401.23 1080.91M2387.14 1167.32 2387.28 1210.5 2401.68 1210.45 2401.53 1167.27M2387.43 1253.68 2387.58 1296.86 2401.97 1296.81 2401.82 1253.63M2387.72 1340.04 2387.87 1383.22 2402.26 1383.17 2402.12 1339.99M2388.02 1426.4 2388.16 1469.58 2402.56 1469.53 2402.41 1426.35M2388.31 1512.75 2388.46 1555.93 2402.85 1555.89 2402.7 1512.71M2388.6 1599.11 2388.75 1642.29 2403.14 1642.24 2403 1599.06M2388.9 1685.47 2389.04 1728.65 2403.44 1728.6 2403.29 1685.42M2389.19 1771.83 2389.26 1793.43 2403.66 1793.38 2403.58 1771.78" id="path348" fill="#52C5BE"/><path d="M996.727 1969.72C996.727 2056.08 1097.48 2099.26 1298.98 2099.26 1500.49 2099.26 1601.24 2120.85 1601.24 2164.03 1601.24 2207.21 1596.44 2228.8 1586.85 2228.8" id="path350" stroke="#231F20" stroke-width="7.19658" stroke-miterlimit="10" fill="none"/><path d="M1630.03 2228.8C1630.03 2214.4 1622.83 2207.21 1608.44 2207.21 1594.04 2207.21 1586.85 2214.4 1586.85 2228.8 1586.85 2243.19 1594.04 2250.39 1608.44 2250.39 1622.83 2250.39 1630.03 2243.19 1630.03 2228.8" id="path352" fill="#231F20"/><path d="M1630.03 2228.8C1630.03 2214.4 1622.83 2207.21 1608.44 2207.21 1594.04 2207.21 1586.85 2214.4 1586.85 2228.8 1586.85 2243.19 1594.04 2250.39 1608.44 2250.39 1622.83 2250.39 1630.03 2243.19 1630.03 2228.8Z" id="path354" stroke="#231F20" stroke-width="7.19658" fill="none"/><path d="M597.316 1789.8 1388.94 1789.8 1388.94 1969.72 597.316 1969.72Z" id="path356" fill="#A3A4A7"/><path d="M597.316 1789.8 1388.94 1789.8 1388.94 1969.72 597.316 1969.72Z" id="path358" stroke="#0E0F0E" stroke-width="7.19658" fill="none"/><path d="M975.137 2232.39 2234.54 2232.39 2234.54 2376.32 975.137 2376.32Z" id="path360" fill="#FAFABB"/><path d="M975.137 2232.39 2234.54 2232.39 2234.54 2376.32 975.137 2376.32Z" id="path362" stroke="#0E0F0E" stroke-width="7.19658" fill="none"/><path d="M982.332 2520.26 2241.74 2520.26 2241.74 2664.19 982.332 2664.19Z" id="path364" fill="#EEEF28"/><path d="M982.332 2520.26 2241.74 2520.26 2241.74 2664.19 982.332 2664.19Z" id="path366" stroke="#0E0F0E" stroke-width="7.19658" fill="none"/><path d="M1676.8 2984.44C1676.8 2965.56 1670.13 2949.44 1656.78 2936.09 1643.43 2922.74 1627.32 2916.07 1608.44 2916.07 1589.56 2916.07 1573.44 2922.74 1560.09 2936.09 1546.74 2949.44 1540.07 2965.56 1540.07 2984.44 1540.07 3003.32 1546.74 3019.43 1560.09 3032.78 1573.44 3046.13 1589.56 3052.8 1608.44 3052.8 1627.32 3052.8 1643.43 3046.13 1656.78 3032.78 1670.13 3019.43 1676.8 3003.32 1676.8 2984.44" id="path368" fill="#EEEF28"/><path d="M1676.8 2984.44C1676.8 2965.56 1670.13 2949.44 1656.78 2936.09 1643.43 2922.74 1627.32 2916.07 1608.44 2916.07 1589.56 2916.07 1573.44 2922.74 1560.09 2936.09 1546.74 2949.44 1540.07 2965.56 1540.07 2984.44 1540.07 3003.32 1546.74 3019.43 1560.09 3032.78 1573.44 3046.13 1589.56 3052.8 1608.44 3052.8 1627.32 3052.8 1643.43 3046.13 1656.78 3032.78 1670.13 3019.43 1676.8 3003.32 1676.8 2984.44Z" id="path370" stroke="#0E0F0E" stroke-width="7.19658" fill="none"/></g></g><g id="g372"><g id="g374" clip-path="url(#clipPath378)"><g id="g380" transform="scale(10 10)"><text id="text386" fill="#231F20" font-family="Helvetica" font-weight="400" font-size="10.7949" transform="matrix(1 0 0 -1 21.1063 18.4969)"><tspan x="0 14.3913 27.2764 30.2774 33.2784 43.1814 57.5732 93.5547 107.946 120.83 123.831 126.832 136.736 151.127" y="0">01...0000...10</tspan><tspan x="23.9512" y="-38.6812"></tspan></text></g></g></g><path d="M347.152 632 322.074 632 322.074 628.859C327.82 627.949 329.258 626.121 329.258 620.371L329.258 556.371C329.258 550.879 328.211 549.191 321.941 548.141L321.941 545.012 357.473 545.012 357.473 548.141C349.504 548.531 347.414 552.711 347.414 561.461L347.414 577.922C353.684 571.781 356.949 570.082 362.824 570.082 378.5 570.082 387.906 584.059 387.906 604.309 387.906 623.512 378.762 633.559 364.262 633.559 356.555 633.559 351.594 630.82 347.152 622.98ZM347.414 616.98C347.414 617.762 348.328 619.59 349.766 621.289 352.375 624.422 355.641 626.121 358.645 626.121 365.309 626.121 368.574 618.41 368.574 602.352 368.574 584.32 364.656 577.27 357.473 577.27 353.16 577.27 349.371 580.789 347.414 585.762L347.414 616.98" id="path388" fill="#231F20"/><path d="M434.555 553.98C429.844 547.801 428.367 546.5 426.891 546.5 426.242 546.5 425.875 547.059 425.875 548.07 425.875 549.18 427.168 553.52 427.629 555.281L434.922 582.879 428.09 582.879C423.566 570.512 422.273 567 417.934 560.449 412.211 551.77 407.961 546.871 404.824 546.871 403.438 546.871 402.977 547.801 402.977 549.18L403.254 550.66 411.473 583.441 411.102 583.711C405.84 582.512 402.516 581.871 397.254 581.219L397.254 579.93C400.762 579.93 401.035 579.84 401.867 579.371L402.883 577.711C402.883 576.969 402.328 574.57 401.59 571.531L398.359 558.691C396.699 551.949 395.867 548.629 395.867 546.871 395.867 543.461 397.527 541.98 400.762 541.98 407.316 541.98 411.934 546.871 422.828 564.789 419.871 554.809 418.672 548.629 418.672 546.602 418.672 543.73 420.336 542.16 423.105 542.16 427.445 542.16 429.844 544.012 435.848 553.148L434.555 553.98" id="path390" fill="#231F20"/><g id="g392" transform="scale(10 10)"></g><path d="M1637.38 574.738 1636.08 573.441 1634.64 572.922C1632.81 572.922 1631.9 574.352 1631.9 576.57L1631.9 610.66C1631.9 621.898 1622.23 628.172 1606.3 628.172 1591.54 628.172 1581.35 622.16 1581.35 611.711 1581.35 606.219 1584.48 602.832 1589.84 602.832 1595.06 602.832 1598.72 606.219 1598.72 610.66 1598.72 612.488 1597.94 614.059 1596.24 616.148 1595.06 617.461 1594.8 618.371 1594.8 619.148 1594.8 622.289 1598.59 623.988 1603.29 623.988 1611 623.988 1613.87 620.199 1613.87 611.84L1613.87 602.961C1598.72 598.648 1592.58 596.301 1587.62 593.031 1581.74 589.109 1578.87 584.148 1578.87 578.398 1578.87 568.738 1584.88 564.559 1593.23 564.559 1600.81 564.559 1606.82 567.039 1614 573.57 1615.44 566.91 1618.31 564.559 1624.71 564.559 1630.33 564.559 1634.38 566.648 1639.34 572ZM1613.87 579.051C1611 575.012 1607.86 573.832 1604.73 573.832 1600.81 573.832 1597.94 576.832 1597.94 582.582 1597.94 590.16 1603.42 595.512 1613.87 598.391L1613.87 579.051" id="path394" fill="#231F20"/><g id="g396" transform="scale(10 10)"><text id="text402" fill="#231F20" font-family="Helvetica" font-weight="400" font-size="10.7949" transform="matrix(1 0 0 -1 237.004 18.4969)"><tspan x="0 14.3913 27.2756 30.2766 33.2776 43.1814 57.5728" y="0">10...00</tspan><tspan x="8.36602" y="-38.6812"></tspan></text></g><path d="M2416.43 545.012 2416.43 548.141C2410.43 549.32 2409.25 550.488 2409.25 555.719L2409.25 633.43 2407.16 633.43 2397.1 626.25C2390.44 631.871 2386.39 633.559 2379.86 633.559 2362.23 633.559 2350.86 618.672 2350.86 600.391 2350.86 581.449 2361.57 569.949 2375.03 569.949 2381.3 569.949 2386.52 571.391 2391.09 577.27L2391.09 560.031C2391.09 551.41 2390.05 549.32 2381.56 548.141L2381.56 545.012ZM2391.09 584.578C2391.09 579.621 2386.52 577.012 2382.08 577.012 2375.03 577.012 2369.93 584.84 2369.93 602.609 2369.93 621.16 2375.03 629.379 2382.34 629.379 2387.57 629.379 2391.09 625.199 2391.09 618.02L2391.09 584.578" id="path404" fill="#231F20"/><path d="M2443.33 598.301C2443.33 600.98 2441.2 603.379 2438.71 603.379 2436.22 603.379 2434.37 601.352 2434.37 598.488 2434.37 595.531 2436.12 593.59 2438.8 593.59 2441.2 593.59 2443.33 595.719 2443.33 598.301ZM2439.45 553.52C2435.48 548.262 2433.26 546.32 2431.69 546.32 2430.95 546.32 2430.4 546.781 2430.4 547.699 2430.4 549 2430.86 550.199 2431.32 551.77L2440 583.441 2439.63 583.711C2430.31 581.961 2428.46 581.68 2424.86 581.41L2424.86 579.93C2429.85 579.84 2430.77 579.559 2430.77 577.711 2430.77 576.969 2430.4 575.309 2429.94 573.648L2425.51 557.309C2424.12 552.141 2423.48 548.91 2423.48 547.059 2423.48 543.641 2424.95 541.98 2428 541.98 2432.62 541.98 2435.57 544.75 2440.65 552.512L2439.45 553.52" id="path406" fill="#231F20"/><g id="g408"><g id="g410" clip-path="url(#clipPath414)"><g id="g416" transform="scale(10 10)"><text id="text422" fill="#231F20" font-family="Helvetica" font-weight="700" font-size="10.7949" transform="matrix(1 0 0 -1 327.444 55.559)"><tspan x="0 7.2002 16.7969 23.3925 29.3945 35.9902 42.5859 45.5869 52.1825 58.7782 61.7792 68.3749 74.3769 80.3788 86.3808" y="0">Embedding Layer</tspan><tspan x="-163.193 -157.191 -153.596 -150.002 -144 -137.404 -133.809 -130.808 -124.213 -117.617 -114.616 -108.614 -102.612 -99.611" y="-45.698">attention cell</tspan></text></g></g></g><path d="M1592.81 1388.47C1590.2 1381.02 1587.2 1378.54 1585.37 1378.54 1581.45 1378.54 1580.01 1382.46 1580.01 1391.6 1580.01 1408.19 1582.62 1425.82 1582.62 1443.33 1582.62 1455.08 1578.84 1460.96 1574.27 1460.96 1567.08 1460.96 1563.03 1451.3 1561.07 1443.07L1563.16 1443.07C1565.78 1450.38 1569.82 1452.73 1571.65 1452.73 1575.7 1452.73 1578.05 1448.68 1578.05 1438.63 1578.05 1434.45 1577.79 1430.66 1577.53 1428.31L1537.04 1372.4 1549.58 1372.4 1576.88 1413.55C1575.96 1400.22 1574.79 1390.43 1574.79 1382.59 1574.79 1373.84 1578.05 1370.31 1581.71 1370.31 1588.5 1370.31 1592.55 1377.76 1594.9 1388.47L1592.81 1388.47" id="path424" fill="#231F20"/><path d="M1660.21 1380.76 1658.9 1379.46 1657.47 1378.93C1655.64 1378.93 1654.72 1380.37 1654.72 1382.59L1654.72 1416.68C1654.72 1427.91 1645.06 1434.18 1629.12 1434.18 1614.36 1434.18 1604.18 1428.18 1604.18 1417.73 1604.18 1412.24 1607.31 1408.84 1612.67 1408.84 1617.89 1408.84 1621.55 1412.24 1621.55 1416.68 1621.55 1418.51 1620.76 1420.08 1619.07 1422.17 1617.89 1423.47 1617.63 1424.39 1617.63 1425.17 1617.63 1428.31 1621.42 1430 1626.12 1430 1633.83 1430 1636.7 1426.22 1636.7 1417.86L1636.7 1408.97C1621.55 1404.66 1615.41 1402.31 1610.45 1399.05 1604.57 1395.13 1601.69 1390.17 1601.69 1384.42 1601.69 1374.75 1607.7 1370.57 1616.06 1370.57 1623.64 1370.57 1629.65 1373.05 1636.83 1379.59 1638.27 1372.92 1641.14 1370.57 1647.54 1370.57 1653.16 1370.57 1657.21 1372.66 1662.17 1378.02ZM1636.7 1385.07C1633.83 1381.02 1630.69 1379.85 1627.56 1379.85 1623.64 1379.85 1620.76 1382.85 1620.76 1388.6 1620.76 1396.17 1626.25 1401.53 1636.7 1404.4L1636.7 1385.07" id="path426" fill="#231F20"/><g id="g428" transform="scale(10 10)"></g><path d="M347.152 1438.01 322.074 1438.01 322.074 1434.88C327.82 1433.96 329.258 1432.14 329.258 1426.39L329.258 1362.39C329.258 1356.9 328.211 1355.2 321.941 1354.16L321.941 1351.02 357.473 1351.02 357.473 1354.16C349.504 1354.55 347.414 1358.73 347.414 1367.48L347.414 1383.94C353.684 1377.8 356.949 1376.1 362.824 1376.1 378.5 1376.1 387.906 1390.08 387.906 1410.32 387.906 1429.52 378.762 1439.58 364.262 1439.58 356.555 1439.58 351.594 1436.84 347.152 1429ZM347.414 1422.99C347.414 1423.78 348.328 1425.61 349.766 1427.3 352.375 1430.44 355.641 1432.14 358.645 1432.14 365.309 1432.14 368.574 1424.43 368.574 1408.36 368.574 1390.34 364.656 1383.29 357.473 1383.29 353.16 1383.29 349.371 1386.81 347.414 1391.78L347.414 1422.99" id="path430" fill="#231F20"/><path d="M434.555 1360C429.844 1353.81 428.367 1352.52 426.891 1352.52 426.242 1352.52 425.875 1353.08 425.875 1354.09 425.875 1355.2 427.168 1359.54 427.629 1361.29L434.922 1388.9 428.09 1388.9C423.566 1376.53 422.273 1373.02 417.934 1366.46 412.211 1357.78 407.961 1352.89 404.824 1352.89 403.438 1352.89 402.977 1353.81 402.977 1355.2L403.254 1356.68 411.473 1389.45 411.102 1389.73C405.84 1388.53 402.516 1387.88 397.254 1387.24L397.254 1385.95C400.762 1385.95 401.035 1385.85 401.867 1385.39L402.883 1383.73C402.883 1382.99 402.328 1380.59 401.59 1377.54L398.359 1364.71C396.699 1357.97 395.867 1354.65 395.867 1352.89 395.867 1349.47 397.527 1348 400.762 1348 407.316 1348 411.934 1352.89 422.828 1370.8 419.871 1360.83 418.672 1354.65 418.672 1352.61 418.672 1349.75 420.336 1348.18 423.105 1348.18 427.445 1348.18 429.844 1350.03 435.848 1359.17L434.555 1360" id="path432" fill="#231F20"/><g id="g434" transform="scale(10 10)"></g><path d="M2416.43 1818.8 2416.43 1821.94C2410.43 1823.11 2409.25 1824.29 2409.25 1829.51L2409.25 1907.23 2407.16 1907.23 2397.1 1900.04C2390.44 1905.66 2386.39 1907.36 2379.86 1907.36 2362.23 1907.36 2350.86 1892.47 2350.86 1874.18 2350.86 1855.24 2361.57 1843.75 2375.03 1843.75 2381.3 1843.75 2386.52 1845.19 2391.09 1851.06L2391.09 1833.82C2391.09 1825.2 2390.05 1823.11 2381.56 1821.94L2381.56 1818.8ZM2391.09 1858.38C2391.09 1853.41 2386.52 1850.8 2382.08 1850.8 2375.03 1850.8 2369.93 1858.64 2369.93 1876.4 2369.93 1894.95 2375.03 1903.18 2382.34 1903.18 2387.57 1903.18 2391.09 1899 2391.09 1891.82L2391.09 1858.38" id="path436" fill="#231F20"/><path d="M2443.33 1872.1C2443.33 1874.78 2441.2 1877.18 2438.71 1877.18 2436.22 1877.18 2434.37 1875.14 2434.37 1872.28 2434.37 1869.33 2436.12 1867.39 2438.8 1867.39 2441.2 1867.39 2443.33 1869.51 2443.33 1872.1ZM2439.45 1827.32C2435.48 1822.05 2433.26 1820.11 2431.69 1820.11 2430.95 1820.11 2430.4 1820.58 2430.4 1821.5 2430.4 1822.79 2430.86 1823.99 2431.32 1825.56L2440 1857.23 2439.63 1857.51C2430.31 1855.75 2428.46 1855.48 2424.86 1855.2L2424.86 1853.72C2429.85 1853.63 2430.77 1853.35 2430.77 1851.51 2430.77 1850.77 2430.4 1849.11 2429.94 1847.44L2425.51 1831.1C2424.12 1825.93 2423.48 1822.7 2423.48 1820.85 2423.48 1817.44 2424.95 1815.77 2428 1815.77 2432.62 1815.77 2435.57 1818.54 2440.65 1826.3L2439.45 1827.32" id="path438" fill="#231F20"/><path d="M1012.33 1802.27C1000.57 1816.64 991.168 1838.71 991.168 1878.68 991.168 1918.26 1000.57 1940.72 1012.33 1955.09L1012.33 1959.01C993.777 1941.51 980.586 1913.55 980.586 1878.68 980.586 1843.15 993.777 1815.85 1012.33 1798.35L1012.33 1802.27" id="path440" fill="#231F20"/><path d="M1162.97 1822.94C1171.98 1827.25 1177.6 1835.48 1177.6 1843.32 1177.6 1850.11 1173.03 1854.68 1167.15 1854.68 1162.45 1854.68 1159.31 1851.68 1159.31 1847.24 1159.31 1842.8 1162.05 1840.58 1166.89 1840.58 1168.32 1840.58 1169.63 1841.1 1170.68 1841.1 1171.72 1841.1 1172.5 1840.32 1172.5 1839.4 1172.5 1835.09 1168.85 1830.26 1161.66 1825.42L1162.97 1822.94" id="path442" fill="#231F20"/><path d="M1267.73 1857.43C1265.12 1849.98 1262.11 1847.5 1260.28 1847.5 1256.37 1847.5 1254.93 1851.42 1254.93 1860.56 1254.93 1877.15 1257.54 1894.78 1257.54 1912.29 1257.54 1924.04 1253.75 1929.92 1249.18 1929.92 1242 1929.92 1237.95 1920.25 1235.99 1912.02L1238.08 1912.02C1240.69 1919.34 1244.74 1921.69 1246.57 1921.69 1250.62 1921.69 1252.97 1917.64 1252.97 1907.58 1252.97 1903.4 1252.71 1899.62 1252.45 1897.26L1211.96 1841.36 1224.5 1841.36 1251.79 1882.5C1250.88 1869.18 1249.7 1859.39 1249.7 1851.55 1249.7 1842.8 1252.97 1839.27 1256.63 1839.27 1263.42 1839.27 1267.47 1846.72 1269.82 1857.43L1267.73 1857.43" id="path444" fill="#231F20"/><path d="M1335.13 1849.72 1333.82 1848.41 1332.38 1847.89C1330.56 1847.89 1329.64 1849.33 1329.64 1851.55L1329.64 1885.64C1329.64 1896.87 1319.98 1903.14 1304.04 1903.14 1289.28 1903.14 1279.09 1897.13 1279.09 1886.68 1279.09 1881.2 1282.23 1877.8 1287.58 1877.8 1292.81 1877.8 1296.46 1881.2 1296.46 1885.64 1296.46 1887.47 1295.68 1889.04 1293.98 1891.13 1292.81 1892.43 1292.55 1893.35 1292.55 1894.13 1292.55 1897.26 1296.33 1898.96 1301.04 1898.96 1308.74 1898.96 1311.62 1895.17 1311.62 1886.82L1311.62 1877.93C1296.46 1873.62 1290.33 1871.27 1285.36 1868.01 1279.48 1864.09 1276.61 1859.12 1276.61 1853.38 1276.61 1843.71 1282.62 1839.53 1290.98 1839.53 1298.55 1839.53 1304.56 1842.01 1311.75 1848.54 1313.18 1841.88 1316.06 1839.53 1322.46 1839.53 1328.07 1839.53 1332.12 1841.62 1337.09 1846.98ZM1311.62 1854.03C1308.74 1849.98 1305.61 1848.81 1302.47 1848.81 1298.55 1848.81 1295.68 1851.81 1295.68 1857.56 1295.68 1865.13 1301.17 1870.49 1311.62 1873.36L1311.62 1854.03" id="path446" fill="#231F20"/><path d="M1349.8 1955.09C1361.55 1940.72 1370.96 1918.65 1370.96 1878.68 1370.96 1839.1 1361.55 1816.64 1349.8 1802.27L1349.8 1798.35C1368.35 1815.85 1381.54 1843.8 1381.54 1878.68 1381.54 1914.21 1368.35 1941.51 1349.8 1959.01L1349.8 1955.09" id="path448" fill="#231F20"/><path d="M617.824 1842.67C609.598 1842.67 603.719 1845.15 603.719 1854.42 603.719 1870.49 614.301 1893.22 628.145 1896.87L628.145 1898.96C623.574 1898.96 619.395 1897.13 615.215 1894.78 602.414 1887.47 592.746 1871.27 592.746 1857.95 592.746 1849.33 596.012 1843.84 602.414 1841.36 605.809 1840.05 611.949 1839.92 617.043 1839.92L609.988 1814.58 620.047 1814.58 626.969 1839.92C631.02 1839.92 634.676 1840.45 638.07 1841.49 656.617 1847.5 666.285 1867.88 666.285 1881.07 666.285 1895.31 657.273 1897.66 649.828 1897.66 635.461 1897.66 628.273 1879.76 623.965 1864.48ZM636.113 1873.88C639.641 1886.82 643.559 1894.91 649.695 1894.91 652.438 1894.91 655.313 1894.13 655.313 1884.2 655.313 1870.88 646.824 1849.98 636.766 1844.63 633.891 1843.06 630.625 1842.67 627.754 1842.67L636.113 1873.88" id="path450" fill="#231F20"/><path d="M685.086 1869.26 684.531 1869.44C679.641 1867.5 676.316 1866.3 671.238 1864.73L671.238 1863.25 673.547 1863.35C676.684 1863.35 677.332 1862.42 677.332 1858.08L677.332 1814.87C677.332 1810.07 676.316 1809.05 670.867 1808.5L670.867 1806.93 693.215 1806.93 693.215 1808.59C686.289 1808.69 685.086 1809.7 685.086 1815.52L685.086 1830.01C688.41 1826.97 690.535 1826.04 694.414 1826.04 705.398 1826.04 713.805 1836.38 713.805 1849.77 713.805 1861.22 707.34 1869.44 698.383 1869.44 693.215 1869.44 689.148 1867.22 685.086 1862.15ZM685.086 1857.81C685.086 1860.58 690.258 1863.9 694.504 1863.9 701.34 1863.9 705.863 1856.88 705.863 1846.08 705.863 1835.92 701.34 1829 694.691 1829 690.352 1829 685.086 1832.32 685.086 1835.09L685.086 1857.81" id="path452" fill="#231F20"/><path d="M759.969 1848.3C759.969 1861.04 751.289 1869.44 740.023 1869.44 727.559 1869.44 719.25 1860.85 719.25 1848.02 719.25 1835.18 728.023 1826.04 739.195 1826.04 751.66 1826.04 759.969 1835.46 759.969 1848.3ZM751.66 1845.8C751.66 1835.09 747.598 1828.63 740.766 1828.63 737.441 1828.63 734.484 1830.29 732.453 1833.25 729.035 1838.23 727.559 1844.88 727.559 1852.17 727.559 1861.41 731.898 1866.85 738.27 1866.85 742.242 1866.85 744.824 1865.01 747.043 1862.24 749.996 1858.45 751.66 1852.08 751.66 1845.8" id="path454" fill="#231F20"/><path d="M806.137 1848.3C806.137 1861.04 797.453 1869.44 786.191 1869.44 773.727 1869.44 765.418 1860.85 765.418 1848.02 765.418 1835.18 774.188 1826.04 785.359 1826.04 797.824 1826.04 806.137 1835.46 806.137 1848.3ZM797.824 1845.8C797.824 1835.09 793.762 1828.63 786.93 1828.63 783.605 1828.63 780.652 1830.29 778.621 1833.25 775.203 1838.23 773.727 1844.88 773.727 1852.17 773.727 1861.41 778.066 1866.85 784.438 1866.85 788.406 1866.85 790.992 1865.01 793.207 1862.24 796.164 1858.45 797.824 1852.08 797.824 1845.8" id="path456" fill="#231F20"/><path d="M832.633 1826.97 832.633 1828.35C826.727 1828.72 825.711 1829.92 825.711 1835L825.711 1889.66 825.246 1890.03C820.445 1888.46 817.031 1887.54 810.66 1885.97L810.66 1884.49C812.137 1884.67 813.336 1884.67 814.074 1884.67 817.031 1884.67 817.953 1883.2 817.953 1878.77L817.953 1835.46C817.953 1830.38 816.66 1828.81 810.844 1828.35L810.844 1826.97 832.633 1826.97" id="path458" fill="#231F20"/><path d="M851.191 1885.32C851.191 1887.91 849.16 1890.03 846.484 1890.03 843.898 1890.03 841.773 1887.91 841.773 1885.32 841.773 1882.64 843.805 1880.61 846.391 1880.61 849.16 1880.61 851.191 1882.64 851.191 1885.32ZM857.934 1826.97 857.934 1828.35C851.84 1828.81 851.102 1829.83 851.102 1836.66L851.102 1869.07 850.73 1869.44 836.418 1864.36 836.418 1862.88C838.082 1863.35 839.465 1863.35 840.297 1863.35 842.605 1863.35 843.344 1861.87 843.344 1857.53L843.344 1836.57C843.344 1829.55 842.422 1828.72 836.051 1828.35L836.051 1826.97 857.934 1826.97" id="path460" fill="#231F20"/><path d="M905.023 1826.97 905.023 1828.35C900.496 1828.81 899.391 1829.83 899.391 1834.82L899.391 1855.22C899.391 1864.36 895.512 1869.44 888.496 1869.44 884.246 1869.44 880 1867.41 875.199 1861.96L875.105 1861.96 875.105 1869.16 874.367 1869.44C869.844 1867.78 866.797 1866.76 861.719 1865.28L861.719 1863.72C862.363 1863.99 863.379 1864.08 864.395 1864.08 866.98 1864.08 867.629 1862.61 867.629 1858.08L867.629 1835.65C867.629 1830.2 866.613 1828.72 861.902 1828.35L861.902 1826.97 881.387 1826.97 881.387 1828.35C876.676 1828.72 875.383 1830.01 875.383 1833.61L875.383 1859.1C879.633 1863.25 881.848 1864.36 884.895 1864.36 889.418 1864.36 891.633 1861.59 891.633 1855.04L891.633 1836.66C891.633 1830.57 890.527 1828.72 885.91 1828.35L885.816 1826.97 905.023 1826.97" id="path462" fill="#231F20"/><path d="M949.805 1862.79 949.805 1866.39 942.695 1866.39C940.848 1866.39 939.461 1866.67 937.613 1867.32L935.586 1868.05C933.09 1868.98 930.598 1869.44 928.195 1869.44 919.609 1869.44 912.777 1862.79 912.777 1854.39 912.777 1848.57 915.18 1845.06 921.363 1842.02 920.07 1840.72 918.781 1839.52 917.395 1838.32 914.348 1835.65 913.148 1833.8 913.148 1831.95 913.148 1829.92 914.164 1828.91 918.043 1827.06 911.395 1822.26 908.992 1819.21 908.992 1815.79 908.992 1810.9 916.102 1806.84 924.965 1806.84 931.613 1806.84 938.633 1809.05 943.434 1812.75 947.219 1815.7 948.973 1818.75 948.973 1822.44 948.973 1828.17 944.633 1832.05 937.801 1832.32L925.891 1832.88C920.902 1833.15 918.688 1833.89 918.688 1835.37 918.688 1837.22 921.734 1840.45 924.227 1841.19L925.98 1841C927.645 1840.82 928.938 1840.72 929.488 1840.72 932.723 1840.72 936.137 1842.11 939.094 1844.33 942.418 1846.82 943.895 1850.23 943.895 1855.04 943.895 1857.71 943.434 1859.84 942.141 1862.79ZM920.441 1858.18C920.441 1863.62 923.027 1866.85 927.273 1866.85 930.137 1866.85 932.535 1865.28 934.016 1862.51 935.77 1859.28 936.785 1855.13 936.785 1851.34 936.785 1846.26 934.105 1843.03 929.953 1843.03 924.227 1843.03 920.441 1849.03 920.441 1857.9ZM946.387 1821.06C946.387 1815.7 939.371 1812.1 928.844 1812.1 920.719 1812.1 915.457 1814.78 915.457 1818.84 915.457 1820.97 916.285 1822.35 919.98 1826.78 923.117 1826.14 930.414 1825.58 934.938 1825.58 943.34 1825.58 946.387 1824.47 946.387 1821.06" id="path464" fill="#231F20"/><path d="M1051.18 1901.58 1026.1 1901.58 1026.1 1898.44C1031.85 1897.53 1033.29 1895.7 1033.29 1889.95L1033.29 1825.95C1033.29 1820.46 1032.24 1818.76 1025.97 1817.72L1025.97 1814.58 1061.5 1814.58 1061.5 1817.72C1053.53 1818.11 1051.44 1822.29 1051.44 1831.04L1051.44 1847.5C1057.71 1841.36 1060.98 1839.66 1066.85 1839.66 1082.53 1839.66 1091.93 1853.64 1091.93 1873.88 1091.93 1893.08 1082.79 1903.14 1068.29 1903.14 1060.58 1903.14 1055.62 1900.4 1051.18 1892.56ZM1051.44 1886.55C1051.44 1887.34 1052.36 1889.17 1053.79 1890.86 1056.4 1894 1059.67 1895.7 1062.67 1895.7 1069.34 1895.7 1072.6 1887.99 1072.6 1871.92 1072.6 1853.9 1068.68 1846.85 1061.5 1846.85 1057.19 1846.85 1053.4 1850.37 1051.44 1855.34L1051.44 1886.55" id="path466" fill="#231F20"/><path d="M1138.58 1823.56C1133.87 1817.38 1132.4 1816.08 1130.92 1816.08 1130.27 1816.08 1129.9 1816.64 1129.9 1817.65 1129.9 1818.76 1131.2 1823.1 1131.66 1824.85L1138.95 1852.46 1132.12 1852.46C1127.59 1840.09 1126.3 1836.58 1121.96 1830.02 1116.24 1821.35 1111.99 1816.45 1108.85 1816.45 1107.47 1816.45 1107 1817.38 1107 1818.76L1107.28 1820.24 1115.5 1853.02 1115.13 1853.29C1109.87 1852.09 1106.54 1851.45 1101.28 1850.8L1101.28 1849.51C1104.79 1849.51 1105.07 1849.41 1105.9 1848.95L1106.91 1847.29C1106.91 1846.55 1106.36 1844.15 1105.62 1841.1L1102.39 1828.27C1100.73 1821.53 1099.89 1818.21 1099.89 1816.45 1099.89 1813.04 1101.56 1811.56 1104.79 1811.56 1111.34 1811.56 1115.96 1816.45 1126.86 1834.36 1123.9 1824.39 1122.7 1818.21 1122.7 1816.17 1122.7 1813.31 1124.36 1811.74 1127.13 1811.74 1131.47 1811.74 1133.87 1813.59 1139.87 1822.73L1138.58 1823.56" id="path468" fill="#231F20"/><g id="g470" transform="scale(10 10)"><text id="text478" fill="#231F20" font-family="Helvetica" font-weight="700" font-size="10.7949" transform="matrix(1 0 0 -1 262.675 120.328)"><tspan x="0 7.79392 11.3886 14.9833 20.9853 27.581 31.1757 34.1767 40.7723 47.368 50.369 56.9647 62.9667 68.9686 74.9706" y="0">Attention Layer</tspan><tspan x="-120.745 -114.149 -108.147 -102.145 -96.1434 -91.9442 -88.9432" y="-106.15">Layer 1</tspan><tspan x="-120.318 -113.722 -107.72 -101.718 -95.7165 -91.5173 -88.5163" y="-134.936">Layer L</tspan></text></g><path d="M1646.91 2430.96C1646.91 2435.79 1642.86 2439.19 1638.68 2439.19 1634.51 2439.19 1630.33 2435.93 1630.33 2430.96 1630.33 2425.87 1633.72 2422.6 1638.68 2422.6 1643.65 2422.6 1646.91 2426.52 1646.91 2430.96ZM1608.77 2430.96C1608.77 2435.79 1604.72 2439.19 1600.54 2439.19 1596.36 2439.19 1592.18 2435.93 1592.18 2430.96 1592.18 2425.87 1595.58 2422.6 1600.54 2422.6 1605.51 2422.6 1608.77 2426.52 1608.77 2430.96ZM1570.76 2430.96C1570.76 2435.79 1566.71 2439.19 1562.53 2439.19 1558.35 2439.19 1554.18 2435.93 1554.18 2430.96 1554.18 2425.87 1557.57 2422.6 1562.53 2422.6 1567.5 2422.6 1570.76 2426.52 1570.76 2430.96" id="path480" fill="#231F20"/><path d="M1359.52 2070.51 1334.02 2070.51 1334.02 2067.32C1339.87 2066.39 1341.33 2064.54 1341.33 2058.69L1341.33 1993.63C1341.33 1988.05 1340.26 1986.33 1333.89 1985.27L1333.89 1982.08 1370.01 1982.08 1370.01 1985.27C1361.91 1985.66 1359.78 1989.91 1359.78 1998.81L1359.78 2015.54C1366.16 2009.3 1369.47 2007.57 1375.45 2007.57 1391.38 2007.57 1400.94 2021.78 1400.94 2042.36 1400.94 2061.88 1391.65 2072.1 1376.91 2072.1 1369.08 2072.1 1364.03 2069.31 1359.52 2061.35ZM1359.78 2055.24C1359.78 2056.04 1360.71 2057.9 1362.17 2059.62 1364.83 2062.81 1368.15 2064.54 1371.2 2064.54 1377.97 2064.54 1381.29 2056.7 1381.29 2040.37 1381.29 2022.05 1377.31 2014.88 1370.01 2014.88 1365.62 2014.88 1361.77 2018.46 1359.78 2023.51L1359.78 2055.24" id="path482" fill="#231F20"/><path d="M1415.09 2063.87 1417.61 2062.68 1431.69 2089.76C1432.48 2091.36 1433.55 2093.08 1433.55 2094.94 1433.55 2097.2 1432.35 2099.32 1429.83 2099.32 1425.98 2099.32 1424.92 2096.4 1423.99 2093.21L1415.09 2063.87" id="path484" fill="#231F20"/><path d="M1486.74 1998.88C1481.95 1992.59 1480.45 1991.28 1478.95 1991.28 1478.29 1991.28 1477.92 1991.84 1477.92 1992.87 1477.92 1994 1479.23 1998.41 1479.7 2000.19L1487.11 2028.25 1480.17 2028.25C1475.57 2015.67 1474.26 2012.11 1469.85 2005.45 1464.03 1996.62 1459.71 1991.65 1456.52 1991.65 1455.11 1991.65 1454.64 1992.59 1454.64 1994L1454.93 1995.5 1463.28 2028.81 1462.9 2029.09C1457.55 2027.87 1454.17 2027.22 1448.83 2026.56L1448.83 2025.25C1452.39 2025.25 1452.67 2025.15 1453.52 2024.68L1454.55 2022.99C1454.55 2022.24 1453.99 2019.8 1453.24 2016.71L1449.95 2003.66C1448.26 1996.81 1447.42 1993.43 1447.42 1991.65 1447.42 1988.18 1449.11 1986.68 1452.39 1986.68 1459.05 1986.68 1463.75 1991.65 1474.82 2009.86 1471.82 1999.72 1470.6 1993.43 1470.6 1991.37 1470.6 1988.46 1472.29 1986.86 1475.1 1986.86 1479.51 1986.86 1481.95 1988.74 1488.05 1998.03L1486.74 1998.88" id="path486" fill="#231F20"/><path d="M1962.71 1975.33 1962.71 1978.46C1956.7 1979.64 1955.53 1980.81 1955.53 1986.04L1955.53 2063.75 1953.44 2063.75 1943.38 2056.57C1936.72 2062.19 1932.67 2063.89 1926.14 2063.89 1908.51 2063.89 1897.14 2048.99 1897.14 2030.71 1897.14 2011.77 1907.85 2000.27 1921.31 2000.27 1927.58 2000.27 1932.8 2001.71 1937.37 2007.59L1937.37 1990.35C1937.37 1981.73 1936.33 1979.64 1927.84 1978.46L1927.84 1975.33ZM1937.37 2014.9C1937.37 2009.94 1932.8 2007.33 1928.36 2007.33 1921.31 2007.33 1916.21 2015.16 1916.21 2032.93 1916.21 2051.48 1921.31 2059.71 1928.62 2059.71 1933.85 2059.71 1937.37 2055.53 1937.37 2048.34L1937.37 2014.9" id="path488" fill="#231F20"/><path d="M1989.6 2028.62C1989.6 2031.3 1987.48 2033.7 1984.99 2033.7 1982.5 2033.7 1980.65 2031.67 1980.65 2028.81 1980.65 2025.85 1982.4 2023.91 1985.08 2023.91 1987.48 2023.91 1989.6 2026.04 1989.6 2028.62ZM1985.73 1983.84C1981.76 1978.58 1979.54 1976.64 1977.97 1976.64 1977.23 1976.64 1976.68 1977.1 1976.68 1978.03 1976.68 1979.32 1977.14 1980.52 1977.6 1982.09L1986.28 2013.76 1985.91 2014.03C1976.59 2012.28 1974.74 2012 1971.14 2011.73L1971.14 2010.25C1976.12 2010.16 1977.05 2009.88 1977.05 2008.03 1977.05 2007.29 1976.68 2005.63 1976.22 2003.97L1971.78 1987.63C1970.4 1982.46 1969.75 1979.23 1969.75 1977.38 1969.75 1973.96 1971.23 1972.3 1974.28 1972.3 1978.89 1972.3 1981.85 1975.07 1986.93 1982.83L1985.73 1983.84" id="path490" fill="#231F20"/><g id="g492"><g id="g494" clip-path="url(#clipPath498)"><g id="g500" transform="scale(10 10)"><text id="text504" fill="#231F20" font-family="Helvetica" font-weight="700" font-size="10.7949" transform="matrix(1 0 0 -1 241.085 241.231)"><tspan x="0 6.59568 13.1914 16.1924 19.1933 25.1953 28.1963 35.9902 42.5859 49.1816 55.7772 61.7792 67.7812 71.3759 77.3778 83.9735 86.9745 93.5702 99.5722 105.574 111.576" y="0">Fully Connected Layer</tspan></text><text id="text508" fill="#231F20" font-family="Helvetica" font-weight="700" font-size="9.35556" transform="matrix(1 0 0 -1 24.564 5.183)"><tspan x="0 5.71625 10.9179 16.1196 19.7589 22.3598 28.076 33.7923 38.994 42.1094 47.8256 53.5419 80.3179 85.5196 88.635 91.7504 95.3898 97.9906 103.707 109.423 112.538 115.139 120.856 126.572 129.173 134.889 140.605 145.807 148.922 154.639 160.355 212.578 215.179 218.294 223.496 231.813 234.414 240.13 245.846 251.048 254.163 259.88 265.596" y="0">user one-hotattribution one-hotitem one-hot</tspan></text></g></g></g><path d="M1766.45 2954.76C1764.23 2966.38 1757.31 2988.06 1755.35 2988.06L1754.83 2988.06C1747.78 2987.02 1743.46 2986.23 1740.85 2985.71 1739.55 2985.45 1738.11 2985.19 1736.67 2984.93L1736.67 2982.71C1738.11 2983.1 1739.29 2983.23 1740.72 2983.23 1745.95 2983.23 1748.3 2981.27 1750.78 2974.87 1754.31 2965.99 1761.49 2936.73 1761.49 2931.51 1761.49 2930.07 1760.97 2928.5 1760.18 2926.93 1759.14 2925.24 1753.26 2917.53 1750.91 2915.05 1747.91 2911.78 1746.34 2910.74 1744.64 2910.74 1741.24 2910.74 1741.24 2914.39 1736.67 2914.39 1733.8 2914.39 1731.58 2912.04 1731.58 2909.17 1731.58 2905.77 1734.32 2903.55 1738.24 2903.55 1745.69 2903.55 1759.66 2918.57 1773.25 2941.04 1784.09 2959.07 1790.36 2973.43 1790.36 2980.88 1790.36 2984.8 1787.48 2988.06 1783.56 2988.06 1780.56 2988.06 1778.34 2986.11 1778.34 2983.23 1778.34 2981.14 1779.12 2979.84 1781.74 2978.14 1784.22 2976.57 1785.13 2975.79 1785.13 2973.96 1785.13 2968.21 1780.3 2958.8 1769.2 2940.39L1766.45 2954.76" id="path510" fill="#231F20"/><path d="M1800.33 3002.82 1766.89 3030.64 1760.62 3030.64 1727.18 3002.82 1735.54 3002.82 1763.75 3021.89 1791.97 3002.82 1800.33 3002.82" id="path512" fill="#231F20"/><path d="M1842.83 2905.46C1838.13 2899.28 1836.65 2897.99 1835.17 2897.99 1834.52 2897.99 1834.16 2898.54 1834.16 2899.56 1834.16 2900.66 1835.45 2905 1835.91 2906.76L1843.2 2934.37 1836.37 2934.37C1831.85 2921.99 1830.55 2918.48 1826.22 2911.93 1820.49 2903.25 1816.24 2898.36 1813.1 2898.36 1811.72 2898.36 1811.26 2899.28 1811.26 2900.66L1811.53 2902.14 1819.75 2934.92 1819.38 2935.2C1814.12 2934 1810.8 2933.35 1805.53 2932.7L1805.53 2931.41C1809.04 2931.41 1809.32 2931.32 1810.15 2930.86L1811.17 2929.2C1811.17 2928.46 1810.61 2926.05 1809.87 2923.01L1806.64 2910.18C1804.98 2903.43 1804.15 2900.11 1804.15 2898.36 1804.15 2894.94 1805.81 2893.46 1809.04 2893.46 1815.6 2893.46 1820.21 2898.36 1831.11 2916.27 1828.15 2906.3 1826.95 2900.11 1826.95 2898.08 1826.95 2895.22 1828.62 2893.65 1831.39 2893.65 1835.73 2893.65 1838.13 2895.49 1844.13 2904.64L1842.83 2905.46" id="path514" fill="#231F20"/><path d="M1870.75 2949.79C1870.75 2952.46 1868.63 2954.86 1866.13 2954.86 1863.64 2954.86 1861.79 2952.83 1861.79 2949.97 1861.79 2947.02 1863.55 2945.08 1866.22 2945.08 1868.63 2945.08 1870.75 2947.2 1870.75 2949.79ZM1866.87 2905C1862.9 2899.74 1860.68 2897.8 1859.11 2897.8 1858.38 2897.8 1857.82 2898.27 1857.82 2899.19 1857.82 2900.48 1858.28 2901.68 1858.75 2903.25L1867.42 2934.92 1867.06 2935.2C1857.73 2933.44 1855.88 2933.17 1852.28 2932.89L1852.28 2931.41C1857.27 2931.32 1858.19 2931.04 1858.19 2929.2 1858.19 2928.46 1857.82 2926.8 1857.36 2925.13L1852.93 2908.79C1851.54 2903.62 1850.9 2900.39 1850.9 2898.54 1850.9 2895.13 1852.37 2893.46 1855.42 2893.46 1860.04 2893.46 1862.99 2896.23 1868.07 2903.99L1866.87 2905" id="path516" fill="#231F20"/><g id="g518" transform="scale(10 10)"><text id="text522" fill="#231F20" font-family="Helvetica" font-weight="700" font-size="10.7949" transform="matrix(1 0 0 -1 255.479 182.938)"><tspan x="0 7.2002 13.7959 20.3916 23.3925 26.3935 32.9892 39.5849 42.5859 49.1816 55.1835 61.1855 67.1875" y="0">Pooling Layer</tspan></text></g></g></g></svg>